<svg width="294" height="251" viewBox="0 0 294 251" fill="none" xmlns="http://www.w3.org/2000/svg">
<path d="M184.848 187.712L187.448 188.177C190.21 188.669 192.047 191.308 191.554 194.069L191.077 196.736C190.584 199.497 187.945 201.336 185.185 200.843L182.585 200.377C179.824 199.884 177.985 197.245 178.478 194.484L178.955 191.818C179.448 189.056 182.087 187.218 184.848 187.712ZM202.143 115.958C208.898 117.165 213.576 120.501 216.177 125.964C218.249 130.279 218.825 135.014 217.904 140.169C216.362 148.79 210.992 156.292 201.794 162.673C198.586 164.898 196.573 167.794 195.751 171.362C195.447 172.546 195.164 173.871 194.902 175.338C194.408 178.099 191.77 179.938 189.009 179.444L186.409 178.979C183.648 178.485 181.809 175.847 182.302 173.086V173.085C183.709 165.219 186.686 159.722 191.235 156.59C196.152 153.203 199.776 149.472 202.111 145.394C203.452 143.02 204.373 140.433 204.874 137.633C205.39 134.744 205.15 132.363 204.156 130.488C203.074 128.323 201.147 127.176 198.373 127.047C195.784 126.906 193.647 128.336 191.965 131.337C191.88 131.482 191.797 131.63 191.716 131.782C190.524 134 187.875 134.998 185.511 134.133L183.193 133.285C180.324 132.235 179.016 128.899 180.418 126.185C181.81 123.488 183.647 121.199 185.927 119.319C188.399 117.286 191.553 116.059 195.389 115.645C197.402 115.409 199.654 115.512 202.143 115.958Z" fill="#AEDBED"/>
<path d="M86.1274 198.351L88.2863 198.454C90.5792 198.564 92.3503 200.511 92.2404 202.804L92.1351 205.019C92.0259 207.312 90.0783 209.082 87.7855 208.974L85.6265 208.871C83.3337 208.761 81.5633 206.814 81.6725 204.521L81.7777 202.306C81.8869 200.013 83.8345 198.242 86.1274 198.351ZM92.5941 138.29C98.2032 138.557 102.352 140.771 105.039 144.931C107.176 148.214 108.143 151.996 107.939 156.277C107.598 163.438 104.031 170.092 97.2387 176.242C94.87 178.386 93.5416 180.949 93.2513 183.932C93.129 184.924 93.0392 186.029 92.9812 187.248C92.872 189.541 90.9252 191.311 88.6315 191.203L86.4726 191.1C84.179 190.99 82.4094 189.043 82.5178 186.75C82.829 180.217 84.6659 175.441 88.0278 172.419C91.6598 169.152 94.2081 165.741 95.6727 162.185C96.511 160.116 96.9855 157.92 97.0962 155.595C97.2108 153.196 96.7649 151.288 95.7594 149.872C94.6532 148.229 92.968 147.501 90.7038 147.689C88.5874 147.847 87.0044 149.233 85.9555 151.846C85.9021 151.973 85.8502 152.103 85.7999 152.234C85.0669 154.16 83.0225 155.249 81.0129 154.796L79.0421 154.353C76.6022 153.803 75.1894 151.235 76.0402 148.884C76.8855 146.547 78.1341 144.496 79.7868 142.73C81.5788 140.819 84.0094 139.491 87.0787 138.749C88.6881 138.345 90.5265 138.192 92.5941 138.29Z" fill="#AEDBED"/>
<path d="M124.208 111.93L125.855 111.641C127.604 111.334 129.269 112.502 129.576 114.251L129.872 115.939C130.179 117.687 129.011 119.354 127.262 119.661L125.616 119.949C123.868 120.257 122.201 119.088 121.895 117.339L121.598 115.651C121.292 113.903 122.461 112.236 124.208 111.93ZM118.893 65.5236C123.17 64.7727 126.675 65.7388 129.409 68.421C131.578 70.5351 132.949 73.2243 133.522 76.4878C134.481 81.9475 132.918 87.5728 128.838 93.3654C127.415 95.3842 126.848 97.5431 127.135 99.8422C127.212 100.612 127.332 101.462 127.494 102.39C127.802 104.138 126.633 105.804 124.885 106.111L123.238 106.4C121.49 106.707 119.824 105.538 119.517 103.789C118.643 98.8088 119.218 94.8942 121.241 92.0448C123.427 88.9631 124.77 85.9573 125.271 83.0266C125.552 81.3236 125.538 79.5858 125.226 77.8131C124.906 75.9839 124.246 74.6207 123.247 73.7228C122.134 72.6708 120.739 72.4076 119.062 72.934C117.493 73.4124 116.533 74.726 116.186 76.8764C116.167 76.9809 116.15 77.087 116.135 77.1954C115.909 78.7722 114.551 79.9418 112.958 79.9411L111.396 79.9403C109.463 79.9395 107.96 78.2419 108.203 76.3237C108.445 74.4179 109.039 72.6592 109.985 71.0467C111.013 69.2996 112.622 67.8861 114.811 66.8055C115.956 66.228 117.317 65.7999 118.893 65.5236Z" fill="#AEDBED"/>
<path d="M3.74936 161.527L4.84238 161.809C6.00274 162.11 6.69943 163.294 6.39908 164.454L6.10879 165.574C5.80845 166.736 4.62408 167.432 3.46372 167.132L2.3707 166.849C1.21034 166.548 0.513654 165.365 0.814002 164.204L1.10429 163.083C1.40463 161.923 2.589 161.226 3.74936 161.527ZM13.4627 131.518C16.3013 132.254 18.1854 133.828 19.1159 136.241C19.8574 138.147 19.948 140.183 19.3868 142.35C18.4486 145.973 15.9158 148.994 11.7875 151.412C10.3485 152.255 9.39559 153.423 8.92881 154.917C8.76083 155.411 8.59673 155.966 8.43726 156.583C8.13692 157.743 6.95255 158.44 5.79219 158.139L4.69995 157.857C3.53958 157.556 2.84212 156.372 3.14247 155.212C3.99862 151.905 5.44694 149.661 7.48823 148.475C9.69284 147.192 11.3595 145.721 12.4873 144.06C13.136 143.092 13.6136 142.02 13.9178 140.843C14.2321 139.63 14.2081 138.607 13.8451 137.775C13.4557 136.818 12.6715 136.266 11.4942 136.121C10.3957 135.975 9.43894 136.514 8.62382 137.739C8.58279 137.798 8.54254 137.859 8.50306 137.921C7.92249 138.826 6.76135 139.165 5.78213 138.72L4.82303 138.282C3.63479 137.74 3.18582 136.277 3.87244 135.167C4.55364 134.063 5.41056 133.148 6.4432 132.421C7.56331 131.635 8.94739 131.216 10.5954 131.164C11.4609 131.13 12.4169 131.248 13.4627 131.518Z" fill="#AEDBED"/>
<path d="M46.6802 166.315L50.0537 165.449C53.6362 164.528 57.286 166.687 58.2064 170.27L59.0943 173.729C60.0147 177.312 57.8557 180.962 54.2732 181.882L50.8998 182.748C47.3173 183.668 43.6674 181.51 42.747 177.927L41.8591 174.467C40.9387 170.885 43.0977 167.235 46.6802 166.315ZM28.1391 70.7688C36.9026 68.5186 44.3409 69.9591 50.4531 75.0883C55.3005 79.1306 58.5834 84.495 60.3011 91.1832C63.1738 102.37 60.8391 114.308 53.2979 127C50.6683 131.425 49.8385 136.002 50.8069 140.732C51.0902 142.318 51.4765 144.063 51.9657 145.966C52.8853 149.549 50.7271 153.199 47.1446 154.118L43.7704 154.985C40.1886 155.905 36.538 153.747 35.6184 150.164C32.9973 139.957 33.5593 131.732 37.3021 125.484C41.3444 118.73 43.6496 112.269 44.217 106.099C44.5267 102.517 44.2147 98.9086 43.2819 95.2758C42.3197 91.5292 40.729 88.8029 38.5089 87.0983C36.0264 85.0942 33.0856 84.7729 29.6873 86.1369C26.505 87.3847 24.7246 90.269 24.3499 94.7912C24.3283 95.0111 24.3097 95.2356 24.295 95.4624C24.079 98.7747 21.4486 101.423 18.1386 101.679L14.8936 101.93C10.8776 102.242 7.48247 98.9574 7.67677 94.9329C7.87029 90.9355 8.8201 87.1842 10.5262 83.6815C12.3778 79.8876 15.4912 76.6907 19.8649 74.092C22.1515 72.7072 24.9088 71.5987 28.1391 70.7688Z" fill="#AEDBED"/>
<path d="M267.456 168.543L269.84 167.93C272.371 167.28 274.951 168.806 275.601 171.337L276.229 173.782C276.879 176.314 275.354 178.893 272.822 179.543L270.438 180.156C267.906 180.806 265.327 179.28 264.677 176.749L264.049 174.303C263.399 171.772 264.924 169.193 267.456 168.543ZM254.354 101.022C260.546 99.4324 265.803 100.45 270.122 104.075C273.548 106.931 275.868 110.723 277.082 115.448C279.111 123.353 277.462 131.791 272.133 140.76C270.274 143.886 269.688 147.12 270.373 150.464C270.572 151.585 270.846 152.818 271.191 154.162C271.841 156.694 270.315 159.273 267.784 159.923L265.4 160.535C262.869 161.186 260.289 159.66 259.639 157.129C257.787 149.916 258.184 144.104 260.829 139.688C263.685 134.916 265.314 130.35 265.716 125.989C265.934 123.458 265.714 120.908 265.055 118.34C264.375 115.693 263.25 113.766 261.682 112.562C259.927 111.146 257.849 110.918 255.448 111.882C253.199 112.764 251.941 114.803 251.676 117.997C251.66 118.154 251.647 118.312 251.637 118.472C251.485 120.814 249.625 122.685 247.286 122.866L244.993 123.044C242.155 123.264 239.756 120.943 239.894 118.099C240.03 115.273 240.701 112.623 241.907 110.147C243.216 107.466 245.416 105.207 248.507 103.371C250.122 102.392 252.071 101.608 254.354 101.022Z" fill="#AEDBED"/>
<path d="M256.552 56.5231L257.87 56.1848C259.269 55.8257 260.695 56.6679 261.055 58.0674L261.401 59.419C261.761 60.8185 260.918 62.2444 259.519 62.6028L258.2 62.9419C256.801 63.3011 255.375 62.4581 255.017 61.0585L254.669 59.7069C254.31 58.3082 255.153 56.8823 256.552 56.5231ZM249.31 19.2018C252.733 18.3224 255.639 18.8852 258.025 20.8893C259.92 22.4677 261.202 24.5632 261.873 27.1757C262.994 31.5447 262.083 36.2086 259.137 41.1659C258.111 42.8952 257.786 44.6818 258.164 46.5296C258.275 47.1496 258.426 47.8308 258.617 48.574C258.976 49.9735 258.133 51.3994 256.734 51.7586L255.416 52.0968C254.016 52.456 252.591 51.613 252.231 50.2143C251.208 46.2269 251.427 43.0144 252.889 40.5737C254.469 37.9356 255.369 35.4121 255.59 33.0015C255.711 31.6028 255.589 30.1931 255.225 28.7742C254.849 27.3104 254.228 26.246 253.36 25.5795C252.391 24.7977 251.242 24.6715 249.915 25.2041C248.671 25.6918 247.976 26.8189 247.83 28.5846C247.821 28.6713 247.814 28.7587 247.808 28.847C247.724 30.1413 246.697 31.1755 245.404 31.2753L244.136 31.3736C242.568 31.4952 241.242 30.2125 241.317 28.6403C241.393 27.079 241.764 25.6136 242.431 24.2458C243.154 22.7634 244.37 21.514 246.078 20.5C246.971 19.9589 248.048 19.5254 249.31 19.2018Z" fill="#AEDBED"/>
<path d="M79.753 79.7949C79.753 79.7949 87.3778 42.6214 70.0041 44.453L53.3952 79.0347C53.3952 79.0347 64.5282 83.598 79.753 79.7949Z" fill="#361710"/>
<path d="M41.043 79.7949C41.043 79.7949 36.8164 49.6502 49.9295 42.0006L67.4008 79.0347C67.4008 79.0347 56.2686 83.598 41.043 79.7949Z" fill="#361710"/>
<path d="M14.1268 71.4588H16.1488C18.2961 71.4588 20.037 73.1997 20.037 75.3463V77.4201C20.037 79.5682 18.2961 81.3083 16.1488 81.3083H14.1268C11.9795 81.3083 10.2393 79.5682 10.2393 77.4201V75.3463C10.2393 73.1997 11.9795 71.4588 14.1268 71.4588ZM17.4972 15.0569C22.7494 15.0569 26.7236 16.9403 29.4198 20.707C31.5625 23.6795 32.6338 27.1699 32.6338 31.1789C32.6338 37.8841 29.5971 44.2603 23.5251 50.3083C21.4072 52.4161 20.2801 54.87 20.1415 57.6699C20.0719 58.6027 20.037 59.6384 20.037 60.7794C20.037 62.9275 18.2961 64.6677 16.1488 64.6677H14.1268C11.9795 64.6677 10.2393 62.9275 10.2393 60.7794C10.2393 54.6625 11.7426 50.1186 14.7492 47.1461C17.9973 43.9313 20.2259 40.6314 21.4366 37.2439C22.1271 35.2746 22.4731 33.2008 22.4731 31.0233C22.4731 28.7769 21.9723 27.0151 20.9698 25.7363C19.8636 24.2508 18.2566 23.6447 16.1488 23.921C14.1787 24.1633 12.7613 25.5288 11.8982 28.0167C11.8533 28.1375 11.8107 28.2606 11.7697 28.386C11.1706 30.2183 9.30888 31.3268 7.4108 30.9939L5.54989 30.6665C3.24619 30.2608 1.81179 27.9246 2.50228 25.6898C3.18813 23.4697 4.26412 21.4981 5.7287 19.7734C7.31869 17.9079 9.53027 16.5602 12.365 15.7311C13.8505 15.2822 15.5604 15.0569 17.4972 15.0569Z" fill="#FCC822"/>
<path d="M62.5002 224.171C62.5002 224.171 61.538 227.889 59.8072 227.328C56.5715 226.283 56.3826 224.171 56.3826 224.171C56.3826 224.171 54.3421 230.323 54.7307 233.253C55.1193 236.183 54.7307 242.771 54.7307 242.771H57.6838C57.6838 242.771 60.4458 243.107 61.5907 244.772C62.7363 246.437 69.0103 245.943 70.999 244.875C73.5465 243.507 66.8599 236.546 64.4943 232.667C62.1287 228.788 62.5002 224.171 62.5002 224.171Z" fill="#1C0906"/>
<path d="M56.9737 169.418C59.0142 164.377 66.2938 164.434 68.0889 169.565C68.4125 170.49 68.647 171.459 68.8003 172.439C69.5551 177.251 68.7972 184.964 66.8101 194.816C64.1287 208.107 62.6796 234.621 58.0234 235.011C53.3665 235.401 56.1037 213.106 56.0061 199.922C55.9094 186.738 53.8317 177.179 56.7802 169.898L56.9737 169.418Z" fill="#CF9166"/>
<path d="M59.6527 207.449C59.0156 190.058 60.1729 177.157 57.3985 167.987L57.2166 167.384C55.2961 161.037 49.4254 162.167 48.2542 169.192C48.0436 170.458 47.9074 171.767 47.8362 173.083C47.4894 179.535 48.5189 189.591 50.657 202.287C53.5428 219.417 54.2441 235.173 58.0232 235.011C61.8016 234.849 60.2898 224.841 59.6527 207.449Z" fill="#EDAC7C"/>
<path d="M54.3768 227.229C54.3768 227.229 55.2004 233.797 57.4925 233.4C59.7466 233.009 60.4936 227.229 60.4936 227.229C60.4936 227.229 62.5349 233.381 62.1463 236.311C61.9272 237.962 61.9551 240.774 62.0209 242.915C62.0697 244.511 60.7901 245.828 59.1932 245.828C59.1932 245.828 56.4312 246.164 55.2855 247.829C54.1407 249.495 47.8666 249.001 45.878 247.933C43.3297 246.565 50.0171 239.605 52.3827 235.726C54.7483 231.846 54.3768 227.229 54.3768 227.229Z" fill="#361710"/>
<path d="M73.911 127.571L59.1266 124.895V124.792L58.8433 124.843L58.5592 124.792V124.895L43.7756 127.571C43.7756 127.571 38.5474 135.358 39.5708 144.518C40.5933 153.677 45.3083 203.214 45.3083 203.214H70.7589C70.7589 203.214 77.0926 153.677 78.1159 144.518C79.1385 135.358 73.911 127.571 73.911 127.571Z" fill="#195172"/>
<path d="M75.6729 130.87C74.7401 128.807 73.9111 127.57 73.9111 127.57L59.1267 124.894V124.791L58.8434 124.843L58.5601 124.791V124.894L43.7757 127.57C43.7757 127.57 42.9466 128.807 42.0146 130.87H75.6729Z" fill="#0D435E"/>
<path d="M62.0226 203.213L62.1953 153.726L66.4334 203.213" fill="#0D435E"/>
<path d="M39.4485 141.562C40.8829 141.52 43.2996 141.235 46.7977 140.129C52.9309 138.19 52.9827 130.094 52.9827 130.094L52.8186 125.934L43.7757 127.572C43.7757 127.572 39.6358 133.744 39.4485 141.562Z" fill="#0D435E"/>
<path d="M78.2385 141.563C78.0519 133.744 73.9113 127.571 73.9113 127.571L64.246 125.821L63.9991 130.093C63.9991 130.093 64.0509 138.189 70.1841 140.128C74.3409 141.444 76.9713 141.599 78.2385 141.563Z" fill="#0D435E"/>
<path d="M44.6014 85.5763L55.1043 81.308L63.3468 81.397L76.2254 86.7684C76.2254 86.7684 69.5125 109.844 69.9545 115.798C70.3965 121.753 73.9109 128.491 73.9109 128.491H44.6014C44.6014 128.491 49.849 117.874 48.6971 111.611C47.5445 105.347 44.6014 85.5763 44.6014 85.5763Z" fill="#5C93BC"/>
<path d="M69.2423 49.5001C65.6784 42.8321 46.8377 40.4704 43.3737 61.4343C40.8478 76.7118 58.0358 80.3144 66.7482 77.5169C81.5705 72.7577 72.807 56.1682 69.2423 49.5001Z" fill="#3E150D"/>
<path d="M72.3094 63.683C72.3094 63.683 74.9731 60.2623 77.4246 62.5095C79.8769 64.7583 76.3726 71.6848 71.677 70.0554L72.3094 63.683Z" fill="#EDAC7C"/>
<path d="M72.0702 66.0975L71.7435 69.3781C75.8052 70.1073 78.1228 64.4518 76.2549 63.6677C74.7439 63.0337 72.8691 65.0177 72.0702 66.0975Z" fill="#F7A588"/>
<path d="M76.9093 64.8397C76.9093 64.8397 76.9015 64.8142 76.8892 64.767C76.8768 64.7205 76.8543 64.6539 76.828 64.5703C76.7669 64.4078 76.6623 64.1724 76.4634 64.0037C76.4139 63.9611 76.3558 63.9271 76.2962 63.8984C76.2652 63.8853 76.2351 63.8706 76.2002 63.8597L76.1778 63.852L76.1762 63.8512C76.194 63.8574 76.1801 63.8527 76.1832 63.8543L76.1801 63.8527L76.1708 63.8512L76.1553 63.8473L76.0911 63.8295C76.0446 63.8156 76.0098 63.8109 75.975 63.8055C75.9417 63.7993 75.9045 63.7939 75.8612 63.7916C75.8225 63.7893 75.7822 63.7869 75.7427 63.7877C75.7002 63.7877 75.6599 63.7862 75.6181 63.7916C75.2845 63.8148 74.9315 63.9449 74.5955 64.1252C74.4244 64.2127 74.2619 64.3188 74.1009 64.4256C73.9422 64.5339 73.7858 64.6462 73.638 64.7592C73.343 64.9876 73.0744 65.2175 72.8422 65.4156C72.3785 65.8251 72.0704 66.0984 72.0704 66.0984C72.0704 66.0984 72.1099 66.0016 72.1966 65.8406C72.2849 65.6812 72.4172 65.4559 72.6022 65.2035C72.6959 65.0781 72.7981 64.9411 72.9173 64.8057C73.0357 64.6694 73.1673 64.5293 73.3113 64.3923C73.6 64.119 73.9383 63.8497 74.3285 63.6414C74.5235 63.5385 74.7302 63.4494 74.9462 63.3891C75.1629 63.3287 75.3905 63.2962 75.6127 63.3047C75.6676 63.3055 75.7218 63.3101 75.7776 63.3178C75.8317 63.3209 75.8844 63.3333 75.937 63.3449C75.9889 63.355 76.0415 63.3705 76.0949 63.3883C76.1499 63.4053 76.201 63.4224 76.2366 63.4417L76.2978 63.4703L76.3365 63.4881L76.3713 63.5067C76.417 63.5307 76.4588 63.5594 76.499 63.5896C76.5772 63.6515 76.6461 63.7196 76.6995 63.7916C76.8117 63.9325 76.8667 64.0842 76.8984 64.215C76.9317 64.3451 76.9356 64.4612 76.9372 64.5525C76.9372 64.6446 76.9263 64.7182 76.9209 64.7662C76.9132 64.8149 76.9093 64.8397 76.9093 64.8397Z" fill="#CF9166"/>
<path d="M47.6138 63.4158C47.6138 63.4158 45.0245 59.9401 42.5257 62.1339C40.0246 64.3277 43.3795 71.3293 48.11 69.8013L47.6138 63.4158Z" fill="#EDAC7C"/>
<path d="M47.8015 65.8369L48.057 69.1237C43.9814 69.7662 41.7861 64.0619 43.671 63.318C45.1936 62.7173 47.0267 64.74 47.8015 65.8369Z" fill="#F7A588"/>
<path d="M42.9916 64.4745C42.9916 64.4745 42.9986 64.4505 43.0125 64.4033C43.0264 64.3561 43.0497 64.2903 43.0791 64.2067C43.1418 64.0449 43.2509 63.8127 43.4553 63.6478C43.5048 63.6068 43.5621 63.5742 43.624 63.5464C43.6558 63.5348 43.686 63.5201 43.7185 63.5108L43.7448 63.503L43.7464 63.5023C43.727 63.5092 43.7425 63.503 43.7386 63.5046H43.7425L43.7502 63.5015L43.7657 63.4976L43.8315 63.4821C43.8764 63.469 43.9128 63.4651 43.9476 63.4605C43.9817 63.4543 44.0196 63.4512 44.0614 63.4496C44.1009 63.4473 44.1396 63.4457 44.1806 63.4481C44.2216 63.4481 44.2627 63.4488 44.3045 63.455C44.6366 63.4844 44.988 63.6215 45.3201 63.8103C45.4881 63.9025 45.6498 64.0101 45.8085 64.1208C45.9641 64.233 46.1182 64.3483 46.2637 64.4652C46.554 64.6998 46.8172 64.9351 47.0455 65.1371C47.4999 65.5575 47.8018 65.8369 47.8018 65.8369C47.8018 65.8369 47.7639 65.7394 47.6803 65.5768C47.5975 65.4158 47.469 65.1867 47.2886 64.9305C47.1988 64.8035 47.0982 64.6642 46.9821 64.5264C46.8659 64.3878 46.7398 64.2446 46.5981 64.1037C46.3156 63.8258 45.9835 63.5487 45.598 63.3312C45.406 63.2259 45.1993 63.1322 44.9841 63.0672C44.7689 63.0014 44.5429 62.9643 44.3215 62.9674C44.265 62.9666 44.2108 62.972 44.1558 62.9774C44.1009 62.9797 44.0482 62.989 43.9941 63.0014C43.9437 63.0092 43.8911 63.0231 43.8361 63.0409C43.782 63.0571 43.7309 63.0726 43.6937 63.092L43.6326 63.1175L43.5939 63.1353L43.5582 63.1531C43.5118 63.1756 43.4685 63.2042 43.4274 63.2329C43.3492 63.294 43.2796 63.3598 43.2231 63.4303C43.1085 63.5704 43.0504 63.7205 43.0156 63.849C42.9792 63.9791 42.973 64.0944 42.9699 64.1873C42.9676 64.2802 42.9761 64.353 42.9815 64.401C42.9877 64.449 42.9916 64.4745 42.9916 64.4745Z" fill="#CF9166"/>
<path d="M62.7965 74.2027L56.1106 74.1292C56.1106 74.1292 55.7406 84.5957 55.7159 84.5957C55.7159 84.5957 56.1842 86.6888 59.1497 86.767C62.116 86.8444 62.8708 84.6716 62.8708 84.6716C62.8468 84.6143 62.7965 74.2027 62.7965 74.2027Z" fill="#EDAC7C"/>
<path d="M62.8709 78.0552L55.901 77.8222C55.901 77.8222 55.8615 81.6741 55.8367 81.6741C55.8367 81.6741 56.2114 84.1218 59.1777 84.2C62.144 84.2774 62.8415 82.0286 62.8415 82.0286C62.8182 81.9706 62.8709 78.0552 62.8709 78.0552Z" fill="#CF9166"/>
<path d="M62.7756 76.1274L56.0897 76.0546C56.0897 76.0546 55.9906 77.3907 55.9016 78.5278C55.8877 78.6919 57.8059 79.0039 58.0141 79.0387C59.6475 79.3158 61.2614 79.1231 62.8584 78.7345C62.8189 77.5703 62.7756 76.1274 62.7756 76.1274Z" fill="#CF9166"/>
<path d="M75.7193 60.9589C75.6295 69.2959 68.3228 75.977 59.3999 75.8811C50.4769 75.7851 43.3166 68.9475 43.4056 60.6105C43.4954 52.272 50.802 45.5908 59.7258 45.6868C68.6479 45.7836 75.8098 52.6204 75.7193 60.9589Z" fill="#3E150D"/>
<path d="M74.0036 60.7354C73.8921 56.0893 71.9422 51.6824 67.3719 49.83C65.0481 48.8871 62.4882 48.6154 59.9902 48.6286C57.5224 48.6425 54.8935 48.7741 52.5643 49.6426C48.3935 51.2009 47.261 48.658 46.7927 52.8961C46.7462 53.3111 46.1951 55.0861 45.63 60.4296C45.5286 61.3817 45.5023 62.3277 45.527 63.2891C45.5843 65.4488 45.904 67.6178 46.5868 69.6754C47.4135 72.1718 48.8146 74.4956 50.8706 76.2025C52.0387 77.1732 53.3872 77.921 54.8192 78.4443C57.1841 79.3059 59.4421 79.607 61.9293 79.1766C63.6152 78.8855 65.2617 78.3529 66.748 77.5177C69.2143 76.1321 71.0736 73.9569 72.2471 71.4318C73.2333 69.3069 73.7605 66.9893 73.9703 64.6693C74.0848 63.399 74.1235 62.1071 74.0128 60.8368C74.0098 60.8027 74.0043 60.7694 74.0036 60.7354Z" fill="#EDAC7C"/>
<path d="M64.1337 65.1298C64.0679 66.4488 64.9976 67.5658 66.2091 67.6255C67.4213 67.6851 68.4563 66.6625 68.5228 65.3427C68.5886 64.0236 67.6605 62.9066 66.4475 62.8478C65.236 62.7881 64.1995 63.8107 64.1337 65.1298Z" fill="#CF9166"/>
<path d="M64.1613 64.5716C64.0947 65.8915 65.0244 67.0077 66.2359 67.0681C67.4489 67.1277 68.4838 66.1051 68.5496 64.7861C68.617 63.467 67.6881 62.3484 66.4751 62.2896C65.2636 62.2316 64.2271 63.2526 64.1613 64.5716Z" fill="black"/>
<path d="M64.947 63.9617C64.923 64.4393 65.2984 64.8465 65.7837 64.8697C66.2706 64.8937 66.684 64.526 66.7072 64.0477C66.732 63.57 66.3566 63.1644 65.8712 63.1404C65.3851 63.1156 64.9709 63.4841 64.947 63.9617Z" fill="white"/>
<path d="M51.0463 64.6146C50.9805 65.9337 51.9094 67.0507 53.1208 67.1103C54.3338 67.1699 55.3688 66.1466 55.4346 64.8283C55.5012 63.5092 54.573 62.3915 53.36 62.3326C52.1493 62.2746 51.1121 63.2948 51.0463 64.6146Z" fill="#CF9166"/>
<path d="M51.0745 64.0566C51.0079 65.3764 51.9384 66.4926 53.1491 66.553C54.3621 66.6118 55.397 65.5908 55.4628 64.2702C55.5302 62.9519 54.6005 61.8334 53.3883 61.7753C52.1776 61.7165 51.1403 62.7383 51.0745 64.0566Z" fill="black"/>
<path d="M51.8601 63.4463C51.8369 63.924 52.21 64.3311 52.6969 64.3544C53.183 64.3784 53.5972 64.0107 53.6212 63.5315C53.6444 63.0539 53.2705 62.6475 52.7828 62.6243C52.2975 62.6003 51.8841 62.968 51.8601 63.4463Z" fill="white"/>
<path d="M58.7794 63.1601C58.7794 63.1601 59.1014 66.0645 57.7336 65.823C55.0862 65.3601 55.0792 71.0334 59.0767 68.9209C60.5854 68.1244 60.0884 63.1996 60.0884 63.1996L58.7794 63.1601Z" fill="#F48470"/>
<path d="M55.9745 71.4756C55.9745 71.4756 61.3011 72.3619 63.8324 69.3096C63.8324 69.3096 65.9603 75.0116 60.2413 75.7439C56.6287 76.2037 55.9745 71.4756 55.9745 71.4756Z" fill="#B43128"/>
<path d="M57.7856 75.0718C58.391 75.5711 59.1906 75.8768 60.2411 75.7437C61.5384 75.5765 62.4302 75.1546 63.0379 74.6035C63.212 74.437 63.3668 74.259 63.5077 74.074C63.5116 74.0701 63.5147 74.0655 63.517 74.0616C63.5201 74.0585 63.5201 74.0569 63.5217 74.0554C63.9575 73.4384 64.1448 72.7317 64.2005 72.0551C60.9865 71.2145 58.6828 73.7272 57.7856 75.0718Z" fill="#F05736"/>
<path d="M55.9745 71.476C55.9745 71.476 55.9815 71.517 55.9931 71.589C56.5118 71.6958 57.4716 72.8229 58.7636 72.778C59.581 72.7509 60.3822 72.5249 61.1176 72.1788C61.5743 71.9644 62.045 71.7577 62.4398 71.4411C62.7424 71.1996 62.96 70.4836 63.0877 70.0408C60.3869 72.209 55.9753 71.476 55.9745 71.476Z" fill="white"/>
<path d="M56.3307 71.8108C56.5613 72.8775 57.4523 75.8121 60.205 75.4599C61.73 75.2664 62.8013 74.6843 63.3896 73.7337C64.2016 72.4208 63.9114 70.6985 63.7016 69.8795C61.4134 72.1491 57.5855 71.9478 56.3307 71.8108ZM59.7111 76.0583C56.3523 76.0227 55.6944 71.5631 55.6889 71.5143C55.6758 71.4261 55.7068 71.3355 55.7733 71.2728C55.8399 71.2101 55.9312 71.1807 56.0234 71.1962C56.0744 71.2039 61.216 72.0175 63.6079 69.1301C63.6737 69.052 63.7774 69.0117 63.8804 69.0295C63.9833 69.0465 64.0685 69.1162 64.1049 69.213C64.1467 69.3252 65.1267 72.0152 63.8866 74.0271C63.2031 75.1332 61.9893 75.8075 60.2793 76.025C60.0804 76.0505 59.893 76.0606 59.7111 76.0583Z" fill="#F05B4E"/>
<path d="M53.9019 71.1647C53.8888 72.3824 52.8747 73.3585 51.6362 73.3446C50.3976 73.3314 49.4029 72.3336 49.4153 71.116C49.4292 69.8983 50.4441 68.923 51.6826 68.9354C52.9212 68.9501 53.9151 69.9471 53.9019 71.1647Z" fill="#F49B77"/>
<path d="M70.004 69.9208C69.9908 71.1384 68.976 72.1153 67.7359 72.1014C66.4989 72.0883 65.5049 71.0912 65.5173 69.8728C65.5313 68.6559 66.5453 67.6798 67.7839 67.693C69.0224 67.7069 70.0171 68.7047 70.004 69.9208Z" fill="#F49B77"/>
<path d="M49.536 58.5898C49.536 58.5898 49.5856 58.4985 49.7017 58.3568C49.7605 58.2887 49.8317 58.1997 49.9246 58.1146C50.0144 58.024 50.122 57.9295 50.2467 57.832C50.3705 57.7352 50.5106 57.6377 50.6647 57.5433C50.8203 57.4527 50.9867 57.3552 51.1694 57.2785C51.3466 57.1911 51.5402 57.1237 51.7383 57.0579C51.9365 56.9898 52.1455 56.9519 52.3506 56.8985C52.5589 56.8659 52.7694 56.8342 52.9753 56.8141C53.1828 56.8025 53.3879 56.797 53.583 56.7978C53.7812 56.8087 53.9708 56.8257 54.1489 56.8427C54.3292 56.8636 54.4949 56.9046 54.6481 56.9348C54.7999 56.9697 54.9384 56.9991 55.0592 57.0455C55.1792 57.0866 55.2837 57.1268 55.3681 57.1593C55.536 57.2243 55.6305 57.2708 55.6305 57.2708C55.6305 57.2708 55.5236 57.2855 55.3441 57.2979C55.2543 57.3049 55.1459 57.3141 55.0228 57.3172C54.902 57.318 54.7627 57.3343 54.6125 57.3467C54.4639 57.3598 54.3037 57.3598 54.1357 57.3784C53.9669 57.397 53.792 57.414 53.6101 57.4272C53.4297 57.4512 53.2455 57.479 53.0551 57.4999C52.8693 57.5317 52.6812 57.5634 52.4915 57.5967C52.3971 57.6168 52.3042 57.6385 52.2113 57.6578C52.1169 57.678 52.024 57.6934 51.9342 57.7205C51.8428 57.7453 51.7515 57.7678 51.6617 57.7894C51.5704 57.8096 51.4875 57.8428 51.3993 57.8661C51.2243 57.9133 51.0602 57.9713 50.9008 58.0232C50.8203 58.0472 50.7467 58.0813 50.6724 58.106C50.5981 58.1331 50.5246 58.1564 50.4572 58.1865C50.3202 58.24 50.1932 58.2903 50.0833 58.339C49.9688 58.3847 49.8735 58.4319 49.7899 58.4675C49.7133 58.507 49.6452 58.5333 49.6042 58.5566C49.5593 58.5782 49.536 58.5898 49.536 58.5898Z" fill="black"/>
<path d="M68.6227 61.7769C68.6227 61.7769 68.5616 61.6925 68.4292 61.5671C68.3603 61.5075 68.2806 61.4277 68.1784 61.3534C68.077 61.2768 67.9562 61.1971 67.8231 61.1158C67.6876 61.0353 67.5359 60.9571 67.3703 60.8836C67.203 60.8131 67.0266 60.738 66.8354 60.6862C66.648 60.6219 66.4475 60.5793 66.2432 60.5391C66.0388 60.4965 65.8267 60.4857 65.6162 60.4609C65.4041 60.4539 65.1935 60.4493 64.9853 60.4563C64.7778 60.471 64.5742 60.4919 64.3784 60.5174C64.1849 60.5538 63.9991 60.5948 63.8234 60.6343C63.65 60.6776 63.4905 60.7403 63.3427 60.7907C63.1956 60.8441 63.0609 60.8913 62.9486 60.9517C62.8341 61.0082 62.7365 61.0616 62.6576 61.1049C62.4966 61.1916 62.4106 61.2482 62.4106 61.2482C62.4106 61.2482 62.5182 61.2505 62.6978 61.2404C62.7869 61.235 62.896 61.2296 63.0191 61.218C63.1398 61.2033 63.2784 61.2009 63.4293 61.1932C63.578 61.1878 63.7367 61.1676 63.9077 61.1638C64.0765 61.1607 64.2522 61.156 64.4333 61.146C64.616 61.1475 64.8041 61.1506 64.9938 61.146C65.1827 61.1529 65.3731 61.1622 65.5658 61.17C65.6611 61.1785 65.7563 61.1862 65.8515 61.194C65.9459 61.2025 66.0411 61.2056 66.1348 61.2218C66.2277 61.2358 66.3206 61.2451 66.4127 61.2551C66.5056 61.2636 66.5946 61.2853 66.6829 61.2977C66.8632 61.3217 67.0327 61.3588 67.1984 61.3898C67.2812 61.4022 67.3571 61.427 67.4345 61.4417C67.5119 61.4595 67.5885 61.4734 67.6582 61.4935C67.8006 61.5307 67.9338 61.5632 68.0499 61.5973C68.1691 61.629 68.269 61.6631 68.3541 61.6878C68.437 61.7173 68.5074 61.7343 68.5523 61.7521C68.598 61.7676 68.6227 61.7769 68.6227 61.7769Z" fill="black"/>
<path d="M73.8122 67.6682C73.8122 67.6682 74.1644 67.0187 74.8348 65.7802C77.3428 61.1411 78.4018 55.6977 77.0487 50.601C76.321 47.8607 74.8224 46.5278 73.6024 45.8814C72.3523 45.2203 66.6673 41.6301 63.2551 40.5936C57.0957 38.7226 50.536 40.6702 45.9271 43.8703C41.3182 47.0704 35.3058 57.5547 40.2909 57.6623C45.2761 57.7707 52.8537 50.7574 50.6018 52.5649C47.3785 55.1535 50.5337 55.4275 57.7475 55.6744C64.9605 55.9206 69.2373 53.411 69.2373 53.411C69.2373 53.411 68.9656 55.6187 70.0285 58.8892C71.0905 62.1605 74.0383 65.8863 74.0383 65.8863" fill="#361710"/>
<path d="M51.2284 82.8839L52.9825 127.465C52.9825 127.465 52.9306 135.561 46.7975 137.501C40.6644 139.441 37.8428 138.859 37.8428 138.859C37.8428 138.859 44.5093 110.123 43.1724 103.688C41.8356 97.2526 39.7873 86.9711 39.7873 86.9711L51.2284 82.8839Z" fill="#122738"/>
<path d="M66.5833 82.7647L63.9994 127.465C63.9994 127.465 64.0513 135.561 70.1844 137.501C76.3175 139.441 79.1391 138.859 79.1391 138.859C79.1391 138.859 72.4718 110.123 73.8087 103.688C75.1463 97.2526 77.1946 86.9719 77.1946 86.9719L66.5833 82.7647Z" fill="#122738"/>
<path d="M84.0795 95.5302C84.0795 95.5302 96.4541 110.182 96.4766 114.792C96.4982 119.402 90.0067 117.947 90.0067 117.947L78.2784 101.207L84.0795 95.5302Z" fill="#EDAC7C"/>
<path d="M84.0795 95.53L78.2784 101.206L82.9408 107.861C82.9408 107.861 85.7059 103.738 90.7158 104.048C87.4778 99.5545 84.0795 95.53 84.0795 95.53Z" fill="#CF9166"/>
<path d="M39.0747 96.9224C39.0747 96.9224 22.5424 106.643 17.9954 105.886C13.4476 105.129 15.9789 98.9761 15.9789 98.9761L34.4611 90.2459L39.0747 96.9224Z" fill="#EDAC7C"/>
<path d="M25.3741 103.942C31.6435 101.29 39.0747 96.9229 39.0747 96.9229L34.4612 90.2464L25.3694 94.5403C25.3694 94.5403 28.7406 101.871 25.3741 103.942" fill="#CF9166"/>
<path d="M93.6805 118.034C93.7138 118.015 93.7471 117.995 93.7804 117.975C95.0816 117.188 96.0399 115.916 96.6948 114.541C98.0889 111.617 98.8259 108.228 99.8864 105.16C100.712 102.769 101.461 100.192 102.472 97.7866C102.317 97.7162 102.172 97.6256 102.042 97.5041C100.756 96.3004 100.124 95.4837 98.644 94.5269C98.2198 98.2201 93.0364 105.471 90.8729 111.233C90.4456 112.372 90.0732 113.551 90.0314 114.766C89.954 117.052 91.1964 119.47 93.6805 118.034Z" fill="#EEC9B1"/>
<path d="M90.9328 118.984C91.5776 119.371 92.6505 119.655 94.1259 118.805L94.2405 118.736C95.5649 117.935 96.6905 116.616 97.4979 114.924C98.4415 112.945 99.0902 110.771 99.718 108.669C100.037 107.597 100.367 106.49 100.727 105.451C100.979 104.722 101.224 103.975 101.47 103.221C102.027 101.526 102.601 99.7743 103.292 98.1309L103.627 97.3321L102.838 96.9752C102.761 96.9404 102.7 96.9017 102.65 96.8552C102.31 96.5363 102.015 96.2445 101.739 95.9712C100.958 95.1971 100.285 94.5283 99.1265 93.7797L97.9236 93.0018L97.7595 94.4253C97.542 96.3257 95.8351 99.4639 94.0284 102.787C92.5444 105.514 91.0117 108.333 90.0403 110.921C89.6222 112.033 89.1887 113.356 89.1423 114.736C89.0781 116.626 89.7809 118.292 90.9328 118.984Z" fill="#EDAC7C"/>
<path d="M101.563 95.3225C101.564 95.317 102.546 92.3507 102.925 92.2354C103.305 92.12 103.979 92.3894 103.979 92.3894L102.842 96.6431C102.842 96.6431 104.426 93.0822 105.044 92.7765C105.661 92.4699 106.352 92.7935 106.352 92.7935L104.463 97.6912C104.463 97.6912 105.58 94.1536 106.24 93.597C106.901 93.042 107.684 93.2781 107.684 93.2781L106.089 98.5597L105.946 97.8917C105.946 97.8917 107.036 96.0207 107.703 95.8783C108.37 95.7343 109.012 95.8953 109.012 95.8953C109.012 95.8953 107.813 97.7988 107.295 99.0218C106.778 100.245 105.84 100.471 105.84 100.471C103.737 99.8269 101.943 98.2563 100.214 96.914C98.8772 95.8752 97.9236 93.001 97.9236 93.001C97.9236 93.001 99.7373 91.3227 101.563 95.3225Z" fill="#EDAC7C"/>
<path d="M16.4277 104.048C16.403 104.018 16.3782 103.989 16.3542 103.958C15.3997 102.774 14.933 101.252 14.7859 99.7358C14.4739 96.5117 14.9368 93.0748 14.9872 89.8282C15.0266 87.3 15.2023 84.6209 15.0731 82.0153C15.2418 82.0021 15.4106 81.9665 15.5731 81.8969C17.1925 81.2033 18.0657 80.6521 19.7834 80.2581C18.9219 83.8739 21.3192 92.4578 21.3873 98.6126C21.4005 99.8295 21.3479 101.064 20.9724 102.221C20.2657 104.397 18.2724 106.247 16.4277 104.048Z" fill="#EEC9B1"/>
<path d="M18.6863 105.879C17.9478 106.023 16.8431 105.924 15.7463 104.62L15.6611 104.516C14.6896 103.312 14.0812 101.689 13.9 99.8215C13.6887 97.6393 13.8211 95.3751 13.9488 93.1852C14.0138 92.0689 14.0812 90.9148 14.0982 89.8148C14.1098 89.0438 14.1346 88.2581 14.1594 87.4662C14.2151 85.6827 14.2724 83.8396 14.1849 82.0592L14.1416 81.1937L15.0055 81.1279C15.0898 81.1225 15.1603 81.1062 15.223 81.0792C15.6526 80.8965 16.0273 80.7223 16.381 80.559C17.3788 80.0976 18.2404 79.6997 19.5842 79.3909L20.9807 79.0696L20.6494 80.4645C20.205 82.3247 20.7392 85.8576 21.3035 89.5973C21.7671 92.6665 22.2463 95.8403 22.2773 98.6046C22.2904 99.7921 22.2463 101.182 21.819 102.496C21.2346 104.294 20.0053 105.622 18.6863 105.879Z" fill="#EDAC7C"/>
<path d="M16.768 80.0105C16.768 80.0043 16.8578 76.8808 16.5412 76.6432C16.223 76.4055 15.4977 76.428 15.4977 76.428L15.1145 80.8147C15.1145 80.8147 14.8413 76.9273 14.3644 76.4287C13.8884 75.9302 13.129 75.9983 13.129 75.9983L13.2335 81.2467C13.2335 81.2467 13.3906 77.5403 12.9595 76.7926C12.5283 76.0448 11.7124 75.9991 11.7124 75.9991L11.409 81.5083L11.7712 80.9293C11.7712 80.9293 11.385 78.7998 10.8067 78.4367C10.2285 78.0745 9.57126 78.0063 9.57126 78.0063C9.57126 78.0063 10.0481 80.2055 10.117 81.5316C10.1859 82.8576 10.9902 83.3894 10.9902 83.3894C13.1878 83.5024 15.4095 82.6377 17.4933 81.965C19.1042 81.4456 20.9806 79.0692 20.9806 79.0692C20.9806 79.0692 19.8489 76.8731 16.768 80.0105Z" fill="#EDAC7C"/>
<path d="M77.1943 86.9708C77.1943 86.9708 87.2707 95.0252 89.6735 99.7402L79.0808 107.387L71.0635 95.5307L77.1943 86.9708Z" fill="#122738"/>
<path d="M39.7886 86.9706C39.7886 86.9706 31.1227 91.2173 25.9455 93.9653L30.6148 105.395L45.4124 99.939L39.7886 86.9706Z" fill="#122738"/>
<path d="M59.985 244.299C58.5514 244.598 56.3406 243.762 54.6809 246.33C53.0816 248.806 49.3219 248.767 49.0509 248.761C51.5629 249.083 54.5323 248.926 55.2855 247.83C56.4311 246.164 59.1931 245.829 59.1931 245.829C60.79 245.829 62.0696 244.511 62.0208 242.916C62.0178 242.823 62.0154 242.721 62.0131 242.625C61.4968 243.333 60.7591 244.138 59.985 244.299Z" fill="#1C0906"/>
<path d="M211.713 45.5168L212.905 45.9395C214.171 46.3877 214.834 47.778 214.386 49.0444L213.952 50.2675C213.504 51.5331 212.114 52.1965 210.848 51.7475L209.655 51.3256C208.39 50.8767 207.726 49.4864 208.175 48.22L208.608 46.9977C209.056 45.7313 210.447 45.0686 211.713 45.5168ZM225.481 12.9616C228.579 14.0585 230.529 15.9999 231.332 18.7843C231.974 20.9851 231.877 23.2671 231.04 25.6312C229.639 29.5845 226.517 32.7103 221.672 35.0078C219.983 35.809 218.806 37.0196 218.139 38.6421C217.904 39.1778 217.666 39.7816 217.428 40.4543C216.98 41.7207 215.59 42.3833 214.324 41.9351L213.132 41.5125C211.865 41.0643 211.202 39.674 211.651 38.4076C212.928 34.8003 214.764 32.4355 217.159 31.3099C219.745 30.0931 221.748 28.613 223.17 26.8682C223.988 25.851 224.626 24.7 225.081 23.4165C225.55 22.092 225.623 20.9479 225.299 19.985C224.956 18.8772 224.136 18.1844 222.835 17.9073C221.623 17.6387 220.502 18.148 219.472 19.4346C219.421 19.4965 219.37 19.56 219.32 19.6258C218.584 20.5802 217.255 20.8458 216.205 20.252L215.176 19.6707C213.902 18.9508 213.544 17.2733 214.418 16.0998C215.286 14.934 216.333 13.9958 217.557 13.2852C218.883 12.5165 220.469 12.1837 222.314 12.2866C223.284 12.3331 224.34 12.5575 225.481 12.9616Z" fill="#FCC822"/>
<path d="M128.443 49.1142L130.186 49.4548C132.037 49.817 133.244 51.6122 132.882 53.4622L132.532 55.2504C132.17 57.1012 130.375 58.3081 128.524 57.9458L126.781 57.6052C124.93 57.2429 123.723 55.4486 124.086 53.5977L124.436 51.8095C124.798 49.9587 126.591 48.7511 128.443 49.1142ZM140.863 1.05929C145.392 1.94563 148.501 4.24004 150.189 7.94175C151.534 10.8663 151.869 14.0563 151.193 17.5118C150.062 23.2928 146.368 28.2764 140.113 32.4658C137.932 33.9265 136.545 35.8509 135.954 38.2405C135.737 39.0339 135.531 39.9218 135.339 40.9049C134.977 42.7558 133.183 43.9633 131.331 43.6003L129.589 43.2597C127.737 42.8974 126.53 41.1031 126.893 39.2522C127.925 33.9783 129.987 30.3146 133.081 28.2593C136.423 26.0369 138.902 23.5676 140.517 20.8513C141.445 19.2698 142.093 17.5405 142.46 15.6633C142.839 13.7273 142.704 12.1234 142.055 10.8516C141.353 9.38465 140.07 8.59121 138.206 8.47432C136.466 8.35046 135.014 9.28789 133.85 11.2874C133.792 11.3841 133.734 11.4832 133.677 11.5846C132.851 13.0624 131.059 13.7041 129.48 13.0964L127.931 12.5004C126.013 11.7627 125.17 9.50618 126.143 7.69635C127.108 5.89814 128.369 4.37937 129.923 3.14082C131.608 1.80009 133.742 1.0113 136.326 0.774422C137.682 0.638184 139.194 0.732624 140.863 1.05929Z" fill="#FCC822"/>
<path d="M100.34 80.0648L101.566 79.7505C102.866 79.4161 104.192 80.2002 104.526 81.5007L104.849 82.7578C105.183 84.0583 104.399 85.3843 103.098 85.7179L101.872 86.033C100.572 86.3666 99.2457 85.5833 98.912 84.2812L98.5892 83.0249C98.2548 81.7244 99.039 80.3992 100.34 80.0648ZM93.6064 45.3645C96.7895 44.5471 99.4903 45.0704 101.71 46.9328C103.471 48.4013 104.663 50.3489 105.287 52.7788C106.33 56.8412 105.483 61.1777 102.744 65.7866C101.789 67.3936 101.487 69.0556 101.839 70.7733C101.942 71.3492 102.082 71.9832 102.259 72.6745C102.594 73.9757 101.809 75.301 100.508 75.6346L99.2836 75.9497C97.9823 76.2833 96.6571 75.4999 96.3227 74.1987C95.3713 70.4923 95.5749 67.5043 96.9342 65.2362C98.4027 62.7831 99.2395 60.4369 99.4454 58.1959C99.5576 56.8946 99.4446 55.5841 99.1063 54.265C98.7564 52.9042 98.179 51.9141 97.3724 51.2948C96.4705 50.5672 95.4031 50.4503 94.1684 50.9457C93.0127 51.3993 92.3663 52.4467 92.2301 54.0885C92.2223 54.169 92.2154 54.2496 92.2099 54.3324C92.1318 55.5361 91.1765 56.4975 89.9744 56.5904L88.7962 56.6817C87.337 56.794 86.1047 55.6019 86.1751 54.1404C86.2456 52.689 86.59 51.3266 87.2101 50.054C87.8828 48.6761 89.0129 47.5149 90.6014 46.5713C91.432 46.0682 92.4329 45.6656 93.6064 45.3645Z" fill="#FCC822"/>
<path d="M287.909 80.23L289.134 79.9157C290.435 79.5813 291.761 80.3655 292.095 81.666L292.417 82.9231C292.752 84.2243 291.968 85.5496 290.667 85.884L289.441 86.1983C288.141 86.5327 286.815 85.7485 286.481 84.4473L286.158 83.1909C285.824 81.8904 286.608 80.5644 287.909 80.23ZM281.175 45.5306C284.358 44.7131 287.059 45.2364 289.279 47.0989C291.04 48.5673 292.232 50.5149 292.856 52.944C293.899 57.0073 293.051 61.3437 290.313 65.9527C289.357 67.5597 289.056 69.2209 289.408 70.9394C289.511 71.5153 289.651 72.1493 289.828 72.8398C290.162 74.141 289.378 75.467 288.078 75.8007L286.852 76.1157C285.551 76.4494 284.226 75.666 283.892 74.3647C282.94 70.6584 283.144 67.6704 284.503 65.4015C285.972 62.9492 286.808 60.6029 287.014 58.3611C287.126 57.0599 287.013 55.7501 286.675 54.4311C286.325 53.0695 285.748 52.0802 284.941 51.4609C284.039 50.7332 282.972 50.6163 281.738 51.1118C280.582 51.5646 279.935 52.612 279.799 54.2546C279.791 54.3343 279.784 54.4156 279.78 54.4984C279.701 55.7014 278.745 56.6636 277.543 56.7564L276.365 56.8478C274.907 56.96 273.674 55.7672 273.744 54.3064C273.814 52.8543 274.159 51.4918 274.779 50.2192C275.452 48.8414 276.582 47.681 278.17 46.7374C279.001 46.2342 280.003 45.8317 281.175 45.5306Z" fill="#FCC822"/>
<path d="M149.17 126.204L154.333 104.397L144.943 104.043L140.01 124.172C139.661 125.593 139.743 127.085 140.242 128.459L149.216 153.153L159.964 152.116L149.17 126.204Z" fill="#A7A6BB"/>
<path d="M144.924 123.293C145.881 121.367 146.811 119.647 147.712 118.129C148.959 115.904 150.536 114.016 152.427 112.449L154.334 104.398L144.943 104.043L140.01 124.173C139.767 125.165 139.746 126.19 139.918 127.188C142.015 126.729 143.894 125.365 144.924 123.293Z" fill="#727293"/>
<path d="M158.319 198.141L158.09 199.201L156.89 204.77L151.576 229.422L150.997 232.1L150.868 232.704L149.799 244.412L148.54 244.793C145.345 245.764 142.081 245.554 139.232 244.385C138.065 243.907 136.876 242.742 136.047 241.816C135.108 240.767 134.349 239.563 133.761 238.285C132.071 234.61 131.68 230.424 131.592 226.429C131.561 225.078 131.569 223.727 131.569 222.375V209.129V197.547V193.339C132.545 193.339 133.641 193.217 134.424 193.164C135.129 193.118 136.396 192.882 137.123 192.882C139.97 191.905 142.906 192.172 145.654 191.838C146.959 191.679 148.222 191.603 149.411 191.554C151.069 191.488 152.583 191.587 153.876 191.907C156.588 192.582 158.319 194.363 158.319 198.141Z" fill="#1C1B2D"/>
<path d="M179.635 234.895L151.366 243.938L149.799 244.413L148.54 244.793C145.345 245.764 142.081 245.555 139.232 244.386C138.49 243.968 137.788 243.482 137.139 242.936C137.134 242.933 137.132 242.928 137.127 242.923C134.937 240.902 133.406 238.17 132.879 235.09L149.238 230.13L151.576 229.423L175.88 222.511L179.635 234.895Z" fill="#1C1B2D"/>
<path d="M194.606 236.935C194.243 235.358 193.608 233.406 193.467 232.789C192.927 230.426 192.129 228.119 191.45 225.793C191.201 224.942 190.898 224.353 190.793 224.168C190.741 224.082 190.748 224.086 190.793 224.168C190.869 224.291 191.067 224.597 191.455 225.128C190.745 224.158 190.176 223.243 189.706 222.142C189.176 220.899 188.769 219.654 188.463 218.415L170.987 223.634L174.944 236.887L183.143 234.438C183.649 234.287 184.182 234.575 184.333 235.08L185.176 237.908C185.438 238.783 185.815 239.591 186.269 240.338C186.745 240.172 187.23 240.033 187.726 239.927C189.893 239.46 191.959 238.693 194.033 237.95C194.209 237.605 194.398 237.265 194.606 236.935Z" fill="#361710"/>
<path d="M178.501 225.677C180.037 225.218 181.654 226.092 182.113 227.627C182.572 229.163 181.698 230.78 180.163 231.239C178.627 231.698 177.01 230.824 176.551 229.289C176.092 227.753 176.966 226.136 178.501 225.677Z" fill="white"/>
<path d="M185.252 238.139C186.986 243.491 192.683 246.506 198.1 244.888C198.606 244.736 198.894 244.204 198.743 243.699L196.114 234.896L185.252 238.139Z" fill="white"/>
<path d="M194.561 245.308C195.724 245.371 196.919 245.24 198.101 244.887C198.606 244.737 198.894 244.204 198.743 243.698L191.242 218.583C191.092 218.077 190.56 217.789 190.053 217.941L186.688 218.945L194.561 245.308Z" fill="white"/>
<path d="M179.344 155.668L177.821 158.788L169.838 175.139L156.698 202.053L131.915 192.016L139.503 174.762L144.946 162.392L153.28 143.443L179.344 155.668Z" fill="#A7A6BB"/>
<path d="M174.896 161.028C174.619 161.028 174.096 160.649 173.469 160.119C172.106 167.287 165.087 172.904 157.799 172.904C151.595 172.904 146.519 169.368 143.873 164.317L138.401 177.27L144.198 186.097C145.426 187.92 147.831 188.532 149.784 187.515L168.734 177.649L176.717 161.299C176.131 161.12 175.516 161.028 174.896 161.028Z" fill="#727293"/>
<path d="M166.792 164.963C165.357 164.963 163.991 164.756 162.692 164.403L146.786 196.982L132.31 191.119L131.915 192.016L156.698 202.054L176.473 161.55C173.699 163.675 170.278 164.963 166.792 164.963Z" fill="#727293"/>
<path d="M184.139 133.897C184.139 133.897 187.985 131.657 189.461 134.737C190.938 137.816 184.95 143.075 181.099 139.727L184.139 133.897Z" fill="#EDAC7C"/>
<path d="M182.987 136.107L181.421 139.108C185.012 141.356 189.384 136.854 187.903 135.393C186.706 134.21 184.161 135.384 182.987 136.107Z" fill="#F7A588"/>
<path d="M188.079 136.759C188.079 136.759 188.081 136.732 188.087 136.681C188.093 136.632 188.097 136.56 188.104 136.471C188.109 136.293 188.099 136.029 187.973 135.792C187.942 135.732 187.901 135.678 187.855 135.628C187.83 135.603 187.807 135.578 187.778 135.554L187.759 135.537L187.758 135.536C187.772 135.55 187.761 135.54 187.764 135.542L187.761 135.54L187.753 135.534L187.74 135.524L187.685 135.484C187.647 135.453 187.615 135.434 187.585 135.417C187.555 135.397 187.521 135.379 187.481 135.36C187.445 135.342 187.408 135.324 187.369 135.31C187.329 135.293 187.291 135.276 187.249 135.266C186.923 135.161 186.537 135.15 186.147 135.194C185.951 135.211 185.756 135.25 185.561 135.29C185.369 135.333 185.177 135.38 184.993 135.431C184.624 135.536 184.28 135.652 183.983 135.752C183.385 135.965 182.987 136.107 182.987 136.107C182.987 136.107 183.062 136.031 183.206 135.91C183.351 135.792 183.563 135.629 183.836 135.458C183.973 135.375 184.123 135.283 184.288 135.2C184.453 135.115 184.632 135.033 184.821 134.957C185.201 134.807 185.627 134.679 186.078 134.63C186.304 134.608 186.534 134.601 186.763 134.626C186.993 134.651 187.222 134.708 187.43 134.8C187.483 134.822 187.532 134.848 187.582 134.875C187.633 134.9 187.678 134.932 187.724 134.963C187.77 134.992 187.814 135.026 187.858 135.064C187.903 135.101 187.945 135.137 187.972 135.169L188.02 135.221L188.049 135.252L188.076 135.283C188.11 135.324 188.139 135.366 188.166 135.41C188.217 135.499 188.256 135.59 188.28 135.679C188.333 135.857 188.327 136.023 188.307 136.16C188.289 136.296 188.249 136.408 188.215 136.496C188.18 136.583 188.142 136.649 188.118 136.693C188.093 136.736 188.079 136.759 188.079 136.759Z" fill="#CF9166"/>
<path d="M160.71 124.201C160.71 124.201 159.572 119.898 156.352 121.033C153.13 122.167 153.65 130.121 158.742 130.475L160.71 124.201Z" fill="#EDAC7C"/>
<path d="M159.964 126.578L158.95 129.807C154.821 128.861 154.91 122.587 156.991 122.599C158.672 122.608 159.644 125.238 159.964 126.578Z" fill="#F7A588"/>
<path d="M155.901 123.44C155.901 123.44 155.918 123.42 155.949 123.381C155.98 123.341 156.027 123.287 156.087 123.22C156.208 123.089 156.401 122.909 156.659 122.83C156.722 122.811 156.789 122.802 156.86 122.799C156.894 122.799 156.928 122.796 156.963 122.801L156.99 122.803H156.992C156.971 122.803 156.988 122.803 156.984 122.803L156.987 122.803L156.997 122.804L157.013 122.806L157.081 122.817C157.129 122.821 157.165 122.832 157.199 122.841C157.235 122.847 157.272 122.858 157.312 122.874C157.351 122.885 157.389 122.9 157.427 122.917C157.466 122.933 157.504 122.949 157.542 122.971C157.847 123.126 158.129 123.392 158.374 123.698C158.499 123.85 158.611 124.015 158.72 124.181C158.827 124.348 158.929 124.516 159.022 124.683C159.209 125.018 159.371 125.342 159.511 125.623C159.783 126.197 159.964 126.579 159.964 126.579C159.964 126.579 159.964 126.47 159.947 126.284C159.93 126.099 159.895 125.832 159.821 125.519C159.784 125.363 159.742 125.192 159.683 125.016C159.626 124.84 159.56 124.655 159.479 124.467C159.317 124.094 159.106 123.703 158.822 123.348C158.679 123.173 158.518 123.005 158.338 122.861C158.158 122.717 157.957 122.595 157.744 122.514C157.692 122.491 157.638 122.475 157.583 122.46C157.53 122.441 157.477 122.429 157.42 122.421C157.369 122.409 157.313 122.402 157.254 122.398C157.196 122.392 157.141 122.388 157.099 122.392L157.031 122.393L156.987 122.395L156.947 122.399C156.894 122.402 156.841 122.413 156.791 122.425C156.693 122.453 156.602 122.489 156.521 122.534C156.359 122.624 156.246 122.745 156.164 122.854C156.079 122.964 156.029 123.071 155.991 123.159C155.953 123.246 155.934 123.319 155.92 123.367C155.907 123.415 155.901 123.44 155.901 123.44Z" fill="#CF9166"/>
<path d="M171.052 140.283L164.71 137.657C164.71 137.657 160.355 147.489 160.331 147.479C160.331 147.479 159.977 149.652 162.773 150.861C165.57 152.069 167.119 150.288 167.119 150.288C167.119 150.224 171.052 140.283 171.052 140.283Z" fill="#EDAC7C"/>
<path d="M169.013 145.561L162.242 143.209C162.242 143.209 160.73 146.67 160.706 146.66C160.706 146.66 160.445 148.397 163.24 149.607C166.037 150.814 167.495 149.319 167.495 149.319C167.495 149.255 169.013 145.561 169.013 145.561Z" fill="#CF9166"/>
<path d="M170.296 142.109L163.954 139.483C163.954 139.483 163.348 140.718 162.828 141.768C162.752 141.919 164.461 142.949 164.646 143.062C166.096 143.952 167.708 144.384 169.378 144.626C169.785 143.5 170.296 142.109 170.296 142.109Z" fill="#CF9166"/>
<path d="M186.905 123.948C181.34 123.948 176.678 121.107 173.866 116.876H158.536C158.254 117.799 157.997 118.804 157.773 119.918C156.088 128.311 158.288 139.232 166.753 142.736C175.218 146.24 185.156 140.515 188.429 132.607C189.622 129.723 189.811 126.663 189.17 123.768C188.422 123.885 187.665 123.948 186.905 123.948Z" fill="#3E150D"/>
<path d="M186.879 131.738C188.551 127.268 188.377 122.323 184.731 118.811C182.877 117.024 180.542 115.786 178.157 114.844C175.8 113.913 173.245 113.033 170.694 112.97C166.124 112.859 165.852 115.136 163.786 118.994C163.582 119.372 160.139 120.206 159.962 120.596C159.554 121.49 159.114 122.356 158.77 123.281C157.999 125.361 157.475 127.55 157.338 129.772C157.171 132.466 157.618 135.216 158.924 137.629C159.665 139.001 160.665 140.229 161.829 141.275C163.753 143 165.789 144.15 168.324 144.691C170.041 145.058 171.814 145.181 173.549 144.952C176.429 144.575 179.032 143.215 181.116 141.258C182.868 139.61 184.257 137.603 185.343 135.473C185.939 134.306 186.469 133.09 186.85 131.838C186.86 131.804 186.868 131.77 186.879 131.738Z" fill="#EDAC7C"/>
<path d="M175.563 130.731C174.996 131.963 175.454 133.383 176.585 133.903C177.718 134.423 179.095 133.845 179.663 132.613C180.231 131.381 179.772 129.962 178.641 129.442C177.508 128.922 176.13 129.499 175.563 130.731Z" fill="#CF9166"/>
<path d="M175.737 129.843C175.169 131.074 175.627 132.494 176.759 133.015C177.892 133.535 179.269 132.957 179.836 131.725C180.404 130.494 179.947 129.073 178.814 128.553C177.682 128.034 176.303 128.611 175.737 129.843Z" fill="black"/>
<path d="M176.718 129.562C176.512 130.008 176.715 130.539 177.169 130.746C177.623 130.955 178.157 130.764 178.363 130.317C178.568 129.871 178.366 129.341 177.913 129.132C177.459 128.923 176.924 129.115 176.718 129.562Z" fill="white"/>
<path d="M162.796 126.013C162.228 127.245 162.686 128.665 163.818 129.184C164.951 129.704 166.329 129.125 166.895 127.895C167.463 126.664 167.005 125.243 165.874 124.723C164.742 124.204 163.363 124.78 162.796 126.013Z" fill="#CF9166"/>
<path d="M163.036 125.49C162.468 126.723 162.927 128.142 164.059 128.663C165.191 129.183 166.568 128.605 167.136 127.373C167.704 126.142 167.246 124.721 166.114 124.201C164.982 123.682 163.603 124.259 163.036 125.49Z" fill="black"/>
<path d="M164.017 125.211C163.812 125.656 164.013 126.187 164.468 126.395C164.922 126.605 165.457 126.412 165.663 125.966C165.867 125.519 165.667 124.989 165.212 124.78C164.758 124.572 164.223 124.764 164.017 125.211Z" fill="white"/>
<path d="M170.88 126.322C170.88 126.322 170.139 131.15 168.783 130.714C166.154 129.873 165.356 135.643 169.716 134.052C171.363 133.452 172.206 126.544 172.206 126.544L170.88 126.322Z" fill="#F48470"/>
<path d="M162.454 123.411C162.454 123.411 162.536 123.343 162.7 123.253C162.783 123.21 162.885 123.153 163.006 123.107C163.126 123.054 163.264 123.007 163.421 122.961C163.575 122.916 163.747 122.877 163.928 122.846C164.112 122.818 164.308 122.79 164.511 122.786C164.713 122.771 164.923 122.781 165.138 122.794C165.353 122.804 165.566 122.848 165.782 122.877C165.993 122.925 166.206 122.975 166.41 123.035C166.611 123.103 166.809 123.176 166.995 123.251C167.18 123.337 167.354 123.426 167.517 123.511C167.681 123.599 167.823 123.702 167.957 123.789C168.088 123.88 168.21 123.962 168.307 124.052C168.405 124.137 168.489 124.215 168.558 124.278C168.693 124.404 168.765 124.485 168.765 124.485C168.765 124.485 168.657 124.459 168.482 124.401C168.393 124.373 168.287 124.34 168.167 124.298C168.052 124.252 167.914 124.214 167.766 124.167C167.619 124.124 167.468 124.062 167.3 124.016C167.132 123.969 166.958 123.918 166.78 123.862C166.598 123.815 166.413 123.772 166.224 123.718C166.035 123.677 165.843 123.636 165.649 123.595C165.552 123.578 165.455 123.562 165.359 123.546C165.261 123.53 165.167 123.508 165.07 123.499C164.974 123.489 164.879 123.475 164.785 123.462C164.691 123.446 164.599 123.445 164.505 123.434C164.321 123.412 164.142 123.405 163.97 123.393C163.884 123.385 163.802 123.39 163.722 123.385C163.64 123.383 163.562 123.377 163.486 123.379C163.335 123.378 163.194 123.377 163.071 123.381C162.944 123.382 162.835 123.39 162.743 123.392C162.654 123.4 162.579 123.399 162.531 123.406C162.48 123.41 162.454 123.411 162.454 123.411Z" fill="black"/>
<path d="M182.019 127.361C182.019 127.361 181.972 127.265 181.86 127.114C181.801 127.042 181.734 126.947 181.644 126.855C181.555 126.759 181.446 126.657 181.326 126.55C181.204 126.446 181.064 126.341 180.909 126.237C180.752 126.136 180.587 126.029 180.404 125.943C180.225 125.845 180.029 125.767 179.829 125.691C179.63 125.611 179.418 125.563 179.209 125.501C178.996 125.457 178.784 125.415 178.572 125.385C178.359 125.364 178.149 125.349 177.948 125.34C177.746 125.344 177.55 125.351 177.365 125.362C177.182 125.375 177.01 125.409 176.851 125.434C176.694 125.463 176.55 125.488 176.425 125.529C176.3 125.566 176.191 125.603 176.104 125.632C175.926 125.692 175.828 125.734 175.828 125.734C175.828 125.734 175.936 125.755 176.12 125.775C176.212 125.787 176.323 125.8 176.449 125.81C176.574 125.817 176.714 125.838 176.869 125.858C177.02 125.878 177.184 125.885 177.357 125.912C177.529 125.938 177.707 125.964 177.893 125.986C178.077 126.019 178.267 126.056 178.459 126.084C178.649 126.125 178.84 126.167 179.034 126.21C179.129 126.235 179.223 126.259 179.319 126.284C179.412 126.31 179.508 126.328 179.6 126.361C179.692 126.392 179.784 126.419 179.875 126.444C179.968 126.469 180.054 126.506 180.141 126.535C180.319 126.591 180.484 126.658 180.646 126.719C180.727 126.745 180.8 126.784 180.876 126.814C180.952 126.844 181.026 126.872 181.094 126.905C181.231 126.966 181.36 127.023 181.471 127.078C181.586 127.131 181.682 127.183 181.763 127.223C181.842 127.267 181.91 127.298 181.952 127.323C181.996 127.347 182.019 127.361 182.019 127.361Z" fill="black"/>
<path d="M187.049 131.973C187.049 131.973 187.973 130.361 188.869 128.15C187.927 130.387 187.049 131.973 187.049 131.973Z" fill="#CF9166"/>
<path d="M188.285 116.169C187.374 116.26 186.426 116.239 185.515 116.258C183.328 116.306 181.139 116.242 178.95 116.282C177.648 116.306 176.349 116.363 175.05 116.465C174.94 116.473 171.927 116.781 172.021 116.743C169.776 117.049 167.539 117.44 165.302 117.783C164.435 117.916 163.583 117.989 162.74 118.028C165.271 118.563 168.55 118.408 170.837 118.185C170.714 118.223 170.605 118.252 170.472 118.298C168.109 119.1 170.061 121.729 174.207 123.497C179.943 125.942 185.142 124.973 185.142 124.973C185.142 124.973 184.215 126.656 184.014 129.62C183.877 131.65 184.379 134.135 184.709 135.501C184.862 136.13 184.977 136.522 184.977 136.522L184.223 137.878C184.223 137.878 185.891 135.059 188.866 131.39C195.065 123.744 194.412 119.307 193.215 117.15C191.535 117.062 189.865 116.745 188.285 116.169Z" fill="#361710"/>
<path d="M187.882 125.896C187.882 125.896 175.547 126.428 154.956 118.24C145.103 114.322 161.221 114.043 161.221 114.043L180.286 113.607L187.882 125.896Z" fill="#2D2C44"/>
<path d="M190.402 129.492C190.402 129.492 189.68 127.971 187.882 125.897C185.813 123.508 182.319 120.384 176.864 118.007C166.676 113.567 161.22 114.044 161.22 114.044C161.22 114.044 162.05 108.061 169.936 105.083C173 103.925 176.156 103.615 179.173 104.107C184.236 104.931 188.91 108.009 192.113 113.124C197.199 121.246 190.402 129.492 190.402 129.492Z" fill="#2D2C44"/>
<path d="M187.882 125.896C185.814 123.507 182.319 120.384 176.864 118.007C166.676 113.566 161.221 114.044 161.221 114.044C161.221 114.044 162.05 108.061 169.936 105.082C173 103.925 176.157 103.615 179.174 104.107C181.782 105.239 184.25 107.003 186.416 109.391C192.215 115.785 188.84 123.922 187.882 125.896Z" fill="#A7A6BB"/>
<path d="M186.078 134.63C186.078 134.63 177.628 137.961 174.17 140.506C173.261 141.176 172.774 143.444 169.808 143.444C166.134 143.444 166.712 141.69 164.305 140.028C162.958 139.097 160.101 138.155 159.291 136.986C157.509 134.42 157.522 126.164 157.522 126.164C157.522 126.164 155.073 132.566 156.939 138.641C157.74 141.251 158.758 148.039 167.821 148.374C176.392 148.691 177.729 146.053 179.401 144.329C181.073 142.608 186.078 134.63 186.078 134.63Z" fill="#361710"/>
<path d="M128.003 128.772L131.416 130.469C135.041 132.271 136.518 136.672 134.716 140.297L132.975 143.798C131.172 147.423 126.772 148.9 123.147 147.098L119.734 145.399C116.109 143.597 114.632 139.197 116.434 135.572L118.175 132.072C119.978 128.447 124.378 126.97 128.003 128.772Z" fill="#FCC822"/>
<path d="M136.4 151.331L135.215 148.723C134.919 147.849 134.81 146.924 134.892 146.006L135.419 140.14C135.489 139.374 135.251 138.611 134.759 138.02L130.035 132.344C129.734 131.981 129.165 132.026 128.922 132.43C128.779 132.67 128.795 132.973 128.966 133.196L131.156 136.067L129.125 134.454C128.732 134.142 128.147 134.307 127.976 134.779C127.874 135.06 127.953 135.376 128.175 135.576L131.346 138.438L128.353 136.494C127.94 136.226 127.384 136.412 127.216 136.875C127.09 137.223 127.231 137.611 127.551 137.798L130.3 139.4L127.369 138.421C127.015 138.304 126.631 138.489 126.504 138.839C126.387 139.161 126.525 139.52 126.827 139.681L128.514 140.58C129.633 141.178 130.237 142.433 130.002 143.68L129.453 146.608C129.143 148.268 129.477 149.983 130.387 151.405L131.874 153.727L136.4 151.331Z" fill="#EDAC7C"/>
<path d="M173.524 155.785L153.243 166.644C151.898 167.366 150.224 166.93 149.398 165.646L137.542 147.369L128.718 152.177L145.794 180.106C147.024 181.929 149.428 182.54 151.379 181.525L179.409 166.931C182.186 165.485 183.48 162.22 182.449 159.265C181.173 155.61 176.936 153.958 173.524 155.785Z" fill="#A7A6BB"/>
<path d="M161.553 191.931C161.553 202.979 152.598 211.937 141.546 211.937L122.201 210.21L108.381 208.976V205.751C108.381 198.117 114.569 191.931 122.201 191.931H161.553Z" fill="#2D2C44"/>
<path d="M121.804 191.932V245.613L109.68 243.105L108.134 205.751C108.134 198.118 113.992 191.932 121.804 191.932Z" fill="#2D2C44"/>
<path d="M101.099 235.982C95.4753 236.112 90.9561 240.708 90.9561 246.363C90.9561 246.891 91.3842 247.319 91.9121 247.319H101.099V235.982Z" fill="white"/>
<path d="M108.469 226.463V235.021C108.469 235.548 108.041 235.976 107.513 235.976H101.342C101.025 235.976 100.711 235.991 100.401 236.018V244.348H122.3V226.463H108.469Z" fill="#361710"/>
<path d="M118.193 233.08C118.193 234.682 116.893 235.982 115.29 235.982C113.687 235.982 112.388 234.682 112.388 233.08C112.388 231.477 113.687 230.177 115.29 230.177C116.893 230.177 118.193 231.477 118.193 233.08Z" fill="white"/>
<path d="M91.5666 242.85C91.1726 243.947 90.9558 245.129 90.9558 246.362C90.9558 246.89 91.3839 247.317 91.9118 247.317H121.344C121.872 247.317 122.3 246.89 122.3 246.362V242.85H91.5666Z" fill="white"/>
<path d="M181.042 36.3825C189.91 40.7918 195.039 47.3096 196.428 55.9322C197.548 62.7497 196.428 69.5408 193.062 76.3087C187.433 87.6274 176.954 95.8429 161.625 100.955C156.28 102.736 152.317 105.932 149.733 110.541C148.832 112.059 147.903 113.779 146.945 115.705C145.142 119.33 140.742 120.807 137.117 119.004L133.704 117.307C130.079 115.505 128.602 111.104 130.404 107.48C135.54 97.1519 141.893 90.7432 149.465 88.249C157.646 85.5498 164.18 81.8496 169.066 77.147C171.886 74.4013 174.212 71.1919 176.039 67.5158C177.925 63.7235 178.558 60.3275 177.941 57.3272C177.319 53.8902 175.115 51.5199 171.324 50.2163C167.796 48.9716 164.257 50.0855 160.71 53.5612C160.534 53.7284 160.358 53.9002 160.184 54.0775C157.634 56.6669 153.561 56.9765 150.636 54.8191L147.77 52.7051C144.22 50.0871 143.76 44.9378 146.802 41.7455C149.824 38.5724 153.295 36.1472 157.216 34.4674C161.465 32.6514 166.332 32.2326 171.813 33.2119C174.697 33.7011 177.774 34.757 181.042 36.3825Z" fill="#FCC822"/>
<path d="M166.839 140.845C167.078 140.845 167.284 140.683 167.345 140.451C167.583 139.529 168.415 138.845 169.413 138.845C170.412 138.845 171.243 139.529 171.481 140.451C171.541 140.683 171.748 140.845 171.987 140.845C172.322 140.845 172.587 140.532 172.505 140.206C172.156 138.82 170.909 137.792 169.413 137.792C167.917 137.792 166.67 138.82 166.321 140.206C166.239 140.532 166.503 140.845 166.839 140.845Z" fill="#F05B4E"/>
<path d="M176.127 139.922C175.639 137.605 173.999 135.692 171.802 134.855C171.388 134.698 170.919 134.772 170.592 135.068C170.228 135.395 169.832 135.746 169.413 135.746C168.973 135.746 168.557 135.377 168.179 135.035C167.856 134.743 167.398 134.662 166.988 134.809C165.007 135.52 163.431 137.109 162.748 139.135C162.537 139.762 162.844 140.488 163.478 140.679C164.099 140.864 164.712 140.516 164.898 139.935C165.533 137.956 167.428 136.574 169.599 136.7C171.77 136.825 173.493 138.416 173.896 140.453C173.997 140.965 174.426 141.344 174.945 141.374H174.946C175.709 141.374 176.284 140.669 176.127 139.922Z" fill="#361710"/>
<path d="M131.915 192.017C131.915 192.017 146.415 192.404 152.729 197.761C159.043 203.118 160.478 203.214 160.478 203.214C160.478 203.214 161.395 192.433 164.812 185.434C168.229 178.435 163.922 180.351 163.061 181.403C162.201 182.455 151.39 191.535 151.39 191.535L149.251 191.932L131.915 192.017Z" fill="#727293"/>
<path d="M217.899 85.9758C217.899 85.9758 216.943 89.6396 218.516 90.4756C220.089 91.3124 224.111 91.7506 224.151 90.4756C224.19 89.2015 225.306 87.9668 223.315 87.0905C221.323 86.215 218.974 85.9758 218.974 85.9758H217.899Z" fill="#C9BDBD"/>
<path d="M256.394 43.0208C256.353 43.0285 256.312 43.0371 256.27 43.0464C255.946 43.116 255.756 43.1818 255.756 43.1818V43.1965C255.679 43.2244 255.601 43.2492 255.526 43.2825C251.339 45.1542 251.339 48.9852 251.339 48.9852L253.923 56.6479C253.923 56.6479 254.645 56.6828 255.726 56.5837L255.651 91.287L256.027 91.5022C258.831 93.1115 262.278 93.1185 265.088 91.5185L265.497 91.287C265.497 91.287 265.999 77.3456 266.184 58.3974C266.343 42.2684 258.679 42.5734 256.394 43.0208Z" fill="#161616"/>
<path d="M250.295 48.4918L251.843 46.4505C252.04 46.1919 252.403 46.1308 252.67 46.315C254.361 47.4769 259.873 51.6942 259.121 56.7722L250.295 48.4918Z" fill="white"/>
<path d="M243.797 80.8486C243.8 80.8285 245.38 80.6512 245.475 80.6342C246.856 80.3803 248.211 79.9646 249.498 79.4026C253.474 77.664 256.532 74.4562 258.044 70.3798C259.13 67.4522 259.435 64.2846 259.316 61.1813C259.144 56.6296 258.092 51.6561 254.084 48.874C250.67 46.506 248.998 47.2252 248.998 47.2252C248.998 47.2252 243.799 80.837 243.797 80.8486Z" fill="#161616"/>
<path d="M244.727 75.0177L237.774 74.5764C237.774 74.5764 236.817 85.447 236.791 85.4455C236.791 85.4455 237.164 87.6485 240.245 87.8931C243.328 88.1354 244.233 85.9161 244.233 85.9161C244.21 85.8542 244.727 75.0177 244.727 75.0177Z" fill="#F8D0B7"/>
<path d="M240.494 83.4403C238.212 83.2599 237.385 82.461 237.109 82.0585C237.397 78.8685 237.774 74.5769 237.774 74.5769L244.726 75.0181C244.726 75.0181 244.529 79.1696 244.384 82.3488C244.195 82.5965 243.222 83.6547 240.494 83.4403Z" fill="#EFBDAC"/>
<path d="M241.753 78.4935L234.8 78.0523C234.8 78.0523 234.623 79.4379 234.468 80.6153C234.445 80.7864 236.424 81.2152 236.639 81.2632C238.323 81.6402 240.013 81.528 241.697 81.2114C241.719 79.9968 241.753 78.4935 241.753 78.4935Z" fill="#CF9166"/>
<path d="M226.402 58.5876C226.597 57.1903 226.745 56.006 227.869 54.6854C230.617 51.4582 235.003 49.6158 239.213 49.6228C245.547 49.6337 252.114 52.0612 253.807 58.6867C254.387 60.9555 254.401 63.3351 254.176 65.6667C253.823 69.3436 252.839 73.06 250.62 76.0139C247.961 79.5531 243.568 81.7221 239.142 81.6811C232.382 81.6184 226.973 77.9863 225.155 72.0901C223.846 67.8457 225.068 64.521 226.078 60.3935C226.238 59.7425 226.324 59.148 226.402 58.5876Z" fill="#F8D0B7"/>
<path d="M256.533 66.4347C256.548 66.4548 256.568 66.4827 256.568 66.4827C256.568 66.4827 256.564 66.4532 256.558 66.3991C256.549 66.3464 256.537 66.2636 256.503 66.163C256.469 66.0639 256.422 65.9393 256.328 65.8069C256.237 65.6745 256.106 65.5251 255.9 65.4013C255.798 65.3378 255.678 65.2828 255.546 65.2364C255.479 65.2147 255.41 65.1946 255.337 65.1814L255.282 65.1698L255.221 65.1605L255.126 65.1466C255.068 65.1357 254.99 65.1303 254.909 65.1272C254.827 65.121 254.748 65.1195 254.673 65.1226C254.594 65.1234 254.516 65.1257 254.438 65.135C254.36 65.1427 254.281 65.1505 254.204 65.1652C254.114 65.1799 254.027 65.2054 253.939 65.2271C253.946 64.6326 253.926 64.0381 253.867 63.449C254.637 63.3399 255.499 63.4149 256.455 63.8159C260.484 65.5081 258.49 73.232 252.133 73.5532C252.297 73.2118 252.445 72.8651 252.583 72.5144C255.988 71.5266 257.241 68.1725 256.533 66.4347Z" fill="#F8D0B7"/>
<path d="M254.557 65.654C254.615 65.6416 254.671 65.6346 254.728 65.6276C254.786 65.6176 254.841 65.6129 254.891 65.6106C254.94 65.6067 254.992 65.6029 255.061 65.606L255.157 65.6067L255.181 65.6075H255.193H255.199C255.194 65.6067 255.215 65.6091 255.187 65.606H255.19L255.227 65.6091C255.278 65.6114 255.325 65.6191 255.373 65.6245C255.468 65.64 255.561 65.6625 255.645 65.6942C255.985 65.8243 256.216 66.0511 256.356 66.2121C256.426 66.2941 256.48 66.3599 256.514 66.4095C256.526 66.4257 256.525 66.4234 256.533 66.4342C257.241 68.1721 255.988 71.5262 252.583 72.5132C253.232 70.8597 253.615 69.1103 253.806 67.3686C253.861 66.8693 253.901 66.3684 253.923 65.8653C254.077 65.8003 254.23 65.7314 254.386 65.6919C254.443 65.6749 254.5 65.6648 254.557 65.654Z" fill="#FFB7A1"/>
<path d="M254.438 65.135C254.517 65.1249 254.595 65.1226 254.672 65.1219C254.748 65.1188 254.826 65.1203 254.908 65.1265C254.99 65.1304 255.069 65.1358 255.127 65.1466L255.22 65.1606L255.281 65.1698L255.336 65.1815C255.409 65.1946 255.48 65.2147 255.546 65.2364C255.678 65.2821 255.798 65.3378 255.9 65.4013C256.106 65.5252 256.237 65.6738 256.329 65.8069C256.422 65.9393 256.469 66.0631 256.503 66.163C256.537 66.2636 256.549 66.3457 256.558 66.3991C256.564 66.4533 256.567 66.4819 256.567 66.4819C256.567 66.4819 256.548 66.4548 256.533 66.4347C256.525 66.4239 256.526 66.4262 256.514 66.4092C256.48 66.3604 256.425 66.2946 256.357 66.2125C256.216 66.0515 255.986 65.8247 255.644 65.6947C255.561 65.6629 255.468 65.6405 255.374 65.625C255.325 65.6196 255.278 65.6119 255.227 65.6095L255.19 65.6064H255.188C255.215 65.6095 255.193 65.6072 255.199 65.608H255.193H255.181L255.158 65.6072L255.062 65.6057C254.992 65.6026 254.94 65.6072 254.89 65.6111C254.84 65.6134 254.787 65.618 254.728 65.6281C254.671 65.6351 254.614 65.642 254.557 65.6544C254.5 65.6653 254.442 65.6753 254.387 65.6924C254.229 65.7318 254.077 65.8007 253.923 65.8658C253.933 65.6537 253.937 65.4408 253.939 65.2271C254.027 65.2055 254.114 65.1799 254.203 65.1652C254.28 65.1505 254.36 65.1428 254.438 65.135Z" fill="#FFA792"/>
<path d="M236.175 65.4186C236.175 65.4186 236.352 68.4584 234.942 68.1325C232.213 67.5055 231.895 73.4087 236.17 71.4302C237.784 70.6839 237.535 65.5316 237.535 65.5316L236.175 65.4186Z" fill="#F48470"/>
<path d="M231.464 73.4824C231.383 74.7488 230.275 75.7095 228.987 75.6274C227.699 75.5454 226.719 74.4531 226.798 73.1867C226.879 71.9203 227.988 70.9604 229.276 71.0417C230.564 71.1238 231.544 72.216 231.464 73.4824Z" fill="#FFB7A1"/>
<path d="M248.287 73.0674C248.207 74.3346 247.098 75.2944 245.808 75.2124C244.521 75.1311 243.542 74.0396 243.621 72.7732C243.702 71.5068 244.811 70.5469 246.098 70.6282C247.387 70.7095 248.368 71.8025 248.287 73.0674Z" fill="#FFB7A1"/>
<path d="M227.315 63.5706C227.315 63.5706 227.381 63.4846 227.524 63.3592C227.595 63.2973 227.683 63.2183 227.793 63.1456C227.9 63.0674 228.027 62.9884 228.171 62.9087C228.314 62.829 228.475 62.7508 228.648 62.6804C228.823 62.6122 229.01 62.5395 229.211 62.4899C229.409 62.4303 229.618 62.3932 229.833 62.3583C230.048 62.3196 230.269 62.3158 230.489 62.2956C230.709 62.2964 230.931 62.2979 231.147 62.3111C231.362 62.3336 231.573 62.3614 231.774 62.3932C231.976 62.4381 232.168 62.4868 232.349 62.534C232.531 62.5851 232.695 62.6548 232.846 62.7121C232.997 62.7725 233.136 62.8251 233.252 62.8932C233.369 62.9552 233.47 63.014 233.552 63.0612C233.713 63.1556 233.802 63.2183 233.802 63.2183C233.802 63.2183 233.69 63.2168 233.504 63.1998C233.411 63.192 233.298 63.1827 233.169 63.1673C233.045 63.1479 232.899 63.1409 232.743 63.1286C232.588 63.1185 232.423 63.0914 232.247 63.0829C232.071 63.0736 231.887 63.0635 231.698 63.0465C231.508 63.0411 231.314 63.0403 231.116 63.0295C230.919 63.0318 230.72 63.0333 230.519 63.0364C230.419 63.0411 230.319 63.0473 230.221 63.0527C230.121 63.0589 230.022 63.0581 229.925 63.0713C229.827 63.0821 229.73 63.0906 229.634 63.0984C229.536 63.103 229.445 63.1239 229.351 63.134C229.163 63.1533 228.984 63.1858 228.812 63.2122C228.725 63.2238 228.644 63.247 228.563 63.2601C228.482 63.2756 228.403 63.288 228.329 63.3081C228.179 63.3399 228.04 63.3708 227.919 63.4026C227.793 63.4312 227.687 63.4637 227.596 63.487C227.511 63.5148 227.436 63.5303 227.391 63.5481C227.34 63.5628 227.315 63.5706 227.315 63.5706Z" fill="#161616"/>
<path d="M245.775 62.5603C245.775 62.5603 245.706 62.4767 245.559 62.3544C245.484 62.2971 245.395 62.2197 245.285 62.15C245.174 62.0757 245.043 62.0006 244.899 61.9248C244.754 61.8505 244.59 61.7792 244.413 61.7134C244.234 61.6515 244.046 61.5849 243.844 61.5431C243.645 61.4882 243.434 61.458 243.219 61.4301C243.003 61.3984 242.781 61.4015 242.561 61.3883C242.34 61.3961 242.121 61.4054 241.905 61.4263C241.69 61.4549 241.479 61.4897 241.278 61.5292C241.079 61.5795 240.889 61.6345 240.709 61.6879C240.531 61.7436 240.369 61.8195 240.218 61.8806C240.069 61.9464 239.933 62.0053 239.82 62.0749C239.705 62.1407 239.606 62.2034 239.527 62.253C239.365 62.3536 239.279 62.4186 239.279 62.4186C239.279 62.4186 239.391 62.4148 239.577 62.3908C239.67 62.3807 239.783 62.3676 239.91 62.3482C240.036 62.3234 240.179 62.3126 240.335 62.294C240.489 62.2801 240.654 62.2483 240.831 62.2329C241.006 62.2189 241.188 62.2019 241.376 62.1787C241.566 62.1686 241.762 62.1601 241.959 62.1423C242.156 62.1376 242.355 62.1346 242.555 62.1291C242.655 62.1315 242.755 62.1338 242.855 62.1361C242.952 62.1392 243.051 62.1353 243.15 62.1469C243.248 62.1547 243.346 62.1593 243.442 62.1624C243.538 62.1655 243.633 62.1825 243.726 62.1895C243.914 62.2027 244.093 62.2298 244.267 62.2514C244.354 62.2576 244.435 62.2801 244.517 62.2901C244.599 62.3025 244.679 62.3134 244.753 62.3288C244.903 62.3575 245.044 62.383 245.166 62.4117C245.292 62.4357 245.399 62.4643 245.489 62.4844C245.578 62.5108 245.652 62.5239 245.7 62.5394C245.748 62.5518 245.775 62.5603 245.775 62.5603Z" fill="#050607"/>
<path d="M241.353 65.5402C241.118 66.4088 241.634 67.2889 242.503 67.5064C243.373 67.724 244.267 67.1968 244.5 66.3275C244.736 65.4597 244.221 64.578 243.351 64.3605C242.482 64.1438 241.587 64.6717 241.353 65.5402Z" fill="#050607"/>
<path d="M242.008 65.2496C241.923 65.5639 242.137 65.8898 242.486 65.9765C242.834 66.0647 243.186 65.8805 243.271 65.5654C243.355 65.2511 243.141 64.9252 242.793 64.8385C242.444 64.7503 242.093 64.9353 242.008 65.2496Z" fill="white"/>
<path d="M232.111 65.162C232.345 66.0306 231.83 66.9115 230.96 67.129C230.09 67.3465 229.196 66.8194 228.963 65.95C228.728 65.0815 229.243 64.2006 230.113 63.9831C230.982 63.7663 231.877 64.2943 232.111 65.162Z" fill="#050607"/>
<path d="M231.456 64.8714C231.541 65.1857 231.326 65.5116 230.978 65.5983C230.629 65.6865 230.278 65.5023 230.193 65.1865C230.108 64.873 230.322 64.5471 230.671 64.4604C231.019 64.3721 231.371 64.5571 231.456 64.8714Z" fill="white"/>
<path d="M247.183 58.0994C247.183 58.0994 252.636 74.788 247.647 79.7778C247.647 79.7778 254.894 75.806 255.553 57.5931L247.183 58.0994Z" fill="#161616"/>
<path d="M254.534 61.5769C256.406 61.2758 256.537 53.2887 256.253 52.2003C255.276 48.4568 249.932 46.157 246.669 44.9331C241.529 43.0064 235.068 42.6898 230.418 46.0285C227.927 47.8189 226.704 50.3378 225.542 53.0835C225.328 53.5898 223.006 59.973 222.993 59.973C222.993 59.973 240.691 60.874 240.552 60.8663L242.225 60.9514C242.225 60.9514 253.217 61.7882 254.534 61.5769Z" fill="#161616"/>
<path d="M268.44 111.23H268.325C266.973 111.237 265.656 111.712 264.489 112.409C265.729 114.033 267.121 115.53 268.913 116.57C269.031 116.639 269.145 116.699 269.256 116.754C269.486 116.488 269.702 116.21 269.893 115.913C271.137 113.989 271.313 111.275 268.44 111.23Z" fill="#E8B79E"/>
<path d="M229.216 160.505C229.216 160.505 230.103 187.742 230.162 190.278C230.221 192.813 233.746 215.512 234.173 221.074C234.6 226.637 233.073 238.064 231.835 242.62L230.333 246.485C230.333 246.485 235.152 248.413 237.026 247.574C239.973 246.252 240.564 241.569 241.306 238.814C242.093 235.893 242.676 232.867 242.551 229.828C242.43 226.905 240.825 224.687 240.213 221.901C238.547 214.314 241.384 206.465 241.789 198.874C242.151 192.101 241.24 185.345 240.227 178.665C239.281 172.434 242.166 166.916 241.867 160.754C241.867 160.754 230.375 152.568 229.086 159.215" fill="#EFC8B1"/>
<path d="M231.304 243.984C231.23 244.319 232.213 244.675 232.436 244.775C234.06 245.511 236.634 246.221 237.971 244.573C239.604 242.567 239.978 239.087 240.67 236.664C241.453 233.923 242.267 230.77 242.025 227.89L241.911 226.533C241.911 226.533 245.729 228.866 245.489 232.105C245.248 235.345 241.991 240.776 241.787 244.164C241.662 246.252 240.646 248.328 238.941 249.568C236.335 251.463 231.833 251.328 229.047 249.899C228.016 249.37 227.204 246.914 228.554 246.293C230.236 245.52 232.959 237.61 232.675 237.343L231.835 242.619C231.835 242.619 231.304 243.981 231.304 243.984Z" fill="#122738"/>
<path d="M245.308 232.906C245.308 232.906 244.226 239.879 244.747 243.78L243.612 244.155L242.479 238.923L245.308 232.906Z" fill="#312E2F"/>
<path d="M255.06 232.906C255.06 232.906 254.146 243.344 254.668 247.247L253.008 247.293L252.231 238.923L255.06 232.906Z" fill="#0C1B26"/>
<path d="M237.853 160.505C237.853 160.505 239.854 187.742 239.913 190.278C239.972 192.813 243.497 215.512 243.925 221.074C244.352 226.637 242.825 238.064 241.587 242.62L240.084 246.485C240.084 246.485 244.905 248.413 246.777 247.574C249.724 246.252 250.316 241.569 251.058 238.814C251.844 235.893 252.427 232.867 252.303 229.828C252.183 226.905 250.576 224.687 249.964 221.901C248.298 214.314 251.136 206.465 251.541 198.874C251.902 192.101 250.992 185.345 249.979 178.665C249.033 172.434 251.917 166.916 251.619 160.754C251.619 160.754 239.013 152.568 237.723 159.215" fill="#F8D0B7"/>
<path d="M241.056 243.984C240.981 244.319 241.965 244.675 242.188 244.775C243.811 245.511 246.386 246.221 247.723 244.573C249.356 242.567 249.73 239.087 250.421 236.664C251.205 233.923 252.019 230.77 251.777 227.89L251.662 226.533C251.662 226.533 255.481 228.866 255.241 232.105C255 235.345 251.743 240.776 251.539 244.164C251.414 246.252 250.399 248.328 248.693 249.568C246.087 251.463 241.585 251.328 238.798 249.899C237.768 249.37 236.955 246.914 238.305 246.293C239.988 245.52 242.711 237.61 242.427 237.343L241.587 242.619C241.587 242.619 241.056 243.981 241.056 243.984Z" fill="#122738"/>
<path d="M250.594 101.985C251.542 97.5078 254.857 92.9306 255.059 91.925C249.834 86.7045 245.17 84.8506 244.072 84.5084L237.574 84.5371C235.836 85.2438 234.084 85.9157 232.34 86.6078C231.684 86.8671 231.072 87.0041 230.659 87.5746C230.152 88.2728 229.894 89.4696 229.561 90.2793C228.648 92.4924 227.709 94.7388 227.259 97.1106C226.968 98.6418 227.33 100.291 227.95 101.985H250.594Z" fill="#F8D0B7"/>
<path d="M257.102 136.192C255.039 130.288 252.255 124.588 251.215 118.379C247.598 119.912 233.846 119.444 231.166 117.073C230.579 124.788 226.622 132.162 224.744 139.673C223.569 144.367 222.589 149.141 222.413 153.988C222.23 159.06 224.058 174.453 224.429 180.119C239.324 189.756 256.25 180.513 256.925 178.765C260.464 169.602 260.292 155.895 259.416 146.024C259.114 142.613 258.213 139.373 257.102 136.192Z" fill="#122738"/>
<path d="M224.743 139.673C224.665 139.983 224.592 140.296 224.516 140.607C229.809 143.44 250.438 145.144 258.231 139.761C257.896 138.56 257.514 137.371 257.101 136.191C255.119 130.521 252.478 125.035 251.35 119.109L248.195 119.037C244.936 119.414 240.24 119.321 236.533 118.773L232.203 118.674C232.203 118.674 230.643 130.495 225.62 136.594C225.299 137.619 225 138.645 224.743 139.673Z" fill="#0B1C28"/>
<path d="M237.097 95.7923C237.084 95.5694 237.057 95.3526 237.028 95.1351C237.022 95.0987 237.017 95.0639 237.011 95.0267C236.63 92.4753 235.17 90.3404 233.294 88.9168C230.937 87.2123 228.428 85.7438 225.957 84.2165C220.998 81.2069 216.745 78.784 211.727 75.8687C210.172 72.9984 208.593 70.1459 206.949 67.339C206.118 65.9363 205.288 64.5345 204.355 63.203C203.304 61.9769 202.537 60.5572 201.787 59.0949C200.272 56.2006 198.967 53.1135 196.883 50.6155C195.744 49.3057 194.505 48.1129 193.208 46.9889C193.325 47.1917 197.25 54.0378 196.848 60.8978C196.848 60.8978 196.84 60.9001 196.835 60.9016C197.305 61.1788 197.773 61.4706 198.244 61.747L198.753 62.055L199.007 62.2091C199.101 62.2579 199.182 62.3159 199.179 62.3678C199.311 62.6418 199.442 63.1063 199.558 63.491C200.025 65.115 200.508 66.7445 201.079 68.3275C202.216 71.4889 203.64 74.535 205.614 77.1367C206.601 78.4279 207.709 79.6393 208.974 80.6263C210.216 81.6311 211.478 82.6111 212.748 83.5779C215.292 85.5093 217.138 86.8515 219.8 88.6149C222.464 90.3737 225.184 92.0527 228.023 93.5327C230.89 94.9571 233.821 96.2978 237.113 96.7979C237.115 96.7406 237.108 96.6856 237.11 96.6283C237.119 96.4689 237.125 96.1801 237.097 95.7923Z" fill="#EFC8B1"/>
<path d="M195.003 50.6392C194.914 51.627 194.364 54.149 193.991 55.0461C193.282 54.9393 192.587 54.6467 191.971 54.2759C191.288 53.8873 190.762 53.3129 190.103 52.8059C189.771 52.5652 189.413 52.3523 189.006 52.213C188.598 52.1046 188.135 51.9722 187.594 52.3167C187.532 52.3654 187.444 52.439 187.403 52.5791C187.351 52.7262 187.392 52.7695 187.392 52.8663C187.427 52.9979 187.477 53.107 187.53 53.2038C187.639 53.3958 187.759 53.5692 187.887 53.7309C188.14 54.0584 188.413 54.3595 188.691 54.6537C189.781 55.8411 191.01 56.8869 192.138 58.0024L192.971 58.8725C193.272 59.1705 193.623 59.3988 193.987 59.59C194.715 59.9732 195.496 60.207 196.203 60.5414C196.456 60.6707 196.703 60.8209 196.952 60.9695V53.4089C195.988 53.1225 195.852 51.1292 195.003 50.6392Z" fill="#EFC8B1"/>
<path d="M219.825 80.5681C219.825 80.5681 221.145 82.7108 220.727 87.0109C220.309 91.3118 218.516 90.4757 218.516 90.4757C218.516 90.4757 222.996 93.8802 227.476 96.2698C231.956 98.6594 231.777 87.2501 231.777 87.2501C231.777 87.2501 220.297 79.143 219.825 80.5681Z" fill="white"/>
<path d="M231.078 118.368C231.061 118.674 230.926 119.06 231.142 119.209C238.024 123.942 251.37 119.005 251.274 118.419C250.812 115.595 250.736 112.679 251.279 109.86C252.5 103.514 257.184 97.3626 255.134 90.683C255.126 90.6598 255.119 90.6358 255.111 90.6126C254.421 88.555 247.623 86.1693 247.031 85.7861C247.231 86.3086 246.682 86.9116 246.494 87.1469C245.567 88.2996 244.109 89.0195 242.718 89.4282C241.102 89.9035 239.407 90.0955 237.726 90.0304C236.783 89.9933 235.836 89.8725 234.911 89.6836C234.343 89.5683 233.643 89.3872 233.264 88.9204C232.568 88.0635 233.226 86.8164 233.656 85.9866C233.656 85.9866 232.833 86.2947 231.778 86.3148C230.468 86.3396 226.462 83.6821 226.462 83.6821C225.724 85.9533 226.853 94.9908 225.975 97.1916C225.422 98.5764 225.133 100.101 225.403 101.568C225.84 103.939 227.614 105.741 228.374 107.987C229.339 110.838 231.242 115.264 231.078 118.368Z" fill="white"/>
<path d="M230.822 115.648C230.822 115.648 228.892 130.299 222.401 135.397C217.541 139.212 247.971 143.546 257.236 136.456C257.63 136.154 257.688 135.579 257.366 135.2C256.855 134.599 256.068 133.352 255.059 130.765C253.182 125.958 250.99 116.105 250.99 116.105L230.822 115.648Z" fill="white"/>
<path d="M271.639 116.615C271.146 117.234 270.291 117.371 268.913 116.57C267.05 115.487 265.616 113.914 264.338 112.214C262.71 110.047 260.772 108.124 258.919 106.138C256.416 103.457 253.791 100.823 251.495 97.9617C249.618 95.6254 248.123 93.8504 248.999 90.5892C249.132 90.0922 249.326 89.5976 249.666 89.2074C250.182 88.6145 251.002 88.4612 251.75 88.5502C253.614 88.7739 254.861 90.086 256.031 91.3919C257.249 92.752 258.603 94.0045 259.879 95.3119C262.605 98.1064 265.269 100.984 267.517 104.181C268.982 106.265 270.543 108.327 271.559 110.683C272.591 113.078 272.647 115.353 271.639 116.615Z" fill="#EFC8B1"/>
<path d="M268.44 111.23H268.325C266.973 111.237 265.656 111.712 264.489 112.409C265.729 114.033 267.121 115.53 268.913 116.57C269.031 116.639 269.145 116.699 269.256 116.754C269.486 116.488 269.702 116.21 269.893 115.913C271.137 113.989 271.313 111.275 268.44 111.23Z" fill="#E8B79E"/>
<path d="M269.724 111.835C269.686 111.84 269.647 111.846 269.609 111.851C268.104 112.079 266.73 112.886 265.596 113.905C263.184 116.073 261.2 118.92 259.041 121.349C257.36 123.24 255.677 125.336 253.819 127.171C253.935 127.295 254.034 127.434 254.107 127.596C254.833 129.203 255.104 130.201 256.104 131.655C257.915 128.403 265.492 123.694 269.706 119.199C270.538 118.311 271.336 117.365 271.841 116.257C272.792 114.174 272.573 111.462 269.724 111.835Z" fill="#EFC8B1"/>
<path d="M253.712 129.796C253.709 129.801 251.662 132.166 251.267 132.126C250.872 132.087 250.352 131.58 250.352 131.58L253.037 128.084C253.037 128.084 250.205 130.767 249.517 130.812C248.828 130.858 248.314 130.294 248.314 130.294L251.941 126.493C251.941 126.493 249.55 129.334 248.726 129.593C247.902 129.854 247.27 129.334 247.27 129.334L250.773 125.066L250.648 125.738C250.648 125.738 248.922 127.048 248.25 126.924C247.579 126.8 247.048 126.405 247.048 126.405C247.048 126.405 248.887 125.106 249.836 124.174C250.783 123.243 251.737 123.395 251.737 123.395C253.434 124.798 254.487 126.939 255.57 128.845C256.407 130.318 256.429 133.141 256.429 133.141C256.429 133.141 255.903 134.093 253.712 129.796Z" fill="#F8D0B7"/>
<path d="M227.996 57.9304C227.996 57.9304 224.986 63.7237 225.155 72.0901C225.155 72.0901 219.521 64.7192 226.873 54.1877L227.996 57.9304Z" fill="#161616"/>
<path d="M257.547 106.405C257.547 106.405 264.25 105.45 265.607 100.431C265.607 100.431 255.903 89.2899 251.715 87.9112C247.527 86.5333 245.695 91.352 247.687 94.7371C249.678 98.1222 257.547 106.405 257.547 106.405Z" fill="white"/>
<path d="M226.06 96.9316C226.06 96.9316 226.35 95.4763 227.514 93.8639C228.68 92.2507 226.343 93.2462 224.083 94.2928C224.083 94.2928 226.075 95.4036 226.072 96.1212C226.071 96.5245 226.06 96.9316 226.06 96.9316Z" fill="#E1E4E5"/>
<path d="M236.516 75.5676C236.755 75.5676 236.961 75.4051 237.021 75.1736C237.26 74.2501 238.091 73.5674 239.09 73.5674C240.088 73.5674 240.92 74.2501 241.158 75.1736C241.218 75.4051 241.424 75.5676 241.664 75.5676C241.999 75.5676 242.263 75.2541 242.181 74.9282C241.832 73.5418 240.585 72.5138 239.09 72.5138C237.594 72.5138 236.347 73.5418 235.998 74.9282C235.916 75.2541 236.18 75.5676 236.516 75.5676Z" fill="#F05B4E"/>
</svg>
